<svg id="e5WPAuMhabk1" xmlns="http://www.w3.org/2000/svg" xmlns:xlink="http://www.w3.org/1999/xlink" viewBox="0 0 300 300" shape-rendering="geometricPrecision" text-rendering="geometricPrecision" width="300" height="300"><g transform="matrix(1.372682 0 0 1.372673-56.177544-137.84878)"><path d="M110.205753,93.711672v56.288328h68.546104v-56.288328h-68.546104Z" transform="translate(5.659562 107.008677)" fill="#fff" stroke="#fff" stroke-width="0.6"/><path d="M110.205753,93.711672v56.288328h68.546104v-56.288328h-68.546104Z" transform="matrix(1.001213 0 0 1 5.567037 50.720349)" fill="#fff" stroke="#fff" stroke-width="0.6"/><path d="M121.600941,242.337975h56.244642l-22.97152,36.513704h-4.874063-5.314617l-23.084442-36.513704Z" transform="matrix(.467403 0 0 0.355014 80.239993 174.617765)" fill="#fff" stroke="#fff" stroke-width="0.6"/><path d="M41.799687,93.5273l68.406064,28.459503L110.205753,150h68.546104l.000006-27.774273-68.546135-29.737705L41.799687,93.5273Z" transform="matrix(.091762 0 0 1 77.623553 70.200416)" fill="#fff" stroke="#fff" stroke-width="0.6"/><path d="M110.205753,93.711672v56.288328h68.546104v-56.288328h-68.546104Z" transform="matrix(.091762 0 0 1 196.179779 70.200417)" fill="#fff" stroke="#fff" stroke-width="0.6"/><path d="M110.205753,93.711672v56.288328h68.546104v-56.288328h-68.546104Z" transform="matrix(.274911 0 0 0.307847 169.71863 191.351559)" fill="#fff" stroke="#fff" stroke-width="0.6"/><path d="M110.205753,93.711672v56.288328h68.546104v-56.288328h-68.546104Z" transform="matrix(.17447 0 0 0.229383 84.719633 200.912856)" fill="#fff" stroke="#fff" stroke-width="0.6"/><path d="M110.205753,93.711672v56.288328h68.546104v-56.288328h-68.546104Z" transform="matrix(.17447 0 0 0.229383 165.183821 200.912856)" fill="#fff" stroke="#fff" stroke-width="0.6"/><path d="M110.205753,93.711672v56.288328h68.546104v-56.288328h-68.546104Z" transform="matrix(.274911 0 0 0.307847 51.162402 191.351559)" fill="#fff" stroke="#fff" stroke-width="0.6"/></g></svg>
