<?xml version="1.0" standalone="no"?>
<!DOCTYPE svg PUBLIC "-//W3C//DTD SVG 20010904//EN"
 "http://www.w3.org/TR/2001/REC-SVG-20010904/DTD/svg10.dtd">
<svg version="1.0" xmlns="http://www.w3.org/2000/svg"
 width="10932.000000pt" height="3926.000000pt" viewBox="0 0 10932.000000 3926.000000"
 preserveAspectRatio="xMidYMid meet">

<g transform="translate(0.000000,3926.000000) scale(0.100000,-0.100000)"
fill="#000000" stroke="none">
<path d="M37010 39253 c-2188 -8 -4435 -42 -4850 -73 -120 -9 -126 -11 -152
-39 -80 -88 -93 -421 -108 -2681 -12 -1765 -12 -6238 0 -6700 7 -289 10 -332
29 -391 86 -271 310 -315 1761 -349 256 -6 736 -17 1067 -24 332 -7 605 -15
608 -18 3 -3 26 -82 50 -174 57 -219 801 -3016 1960 -7364 2806 -10528 4135
-15522 4785 -17985 446 -1693 525 -1983 644 -2376 135 -446 179 -547 297 -676
l84 -93 3080 0 c4193 1 5937 14 6330 51 171 15 182 20 212 87 179 403 940
3121 2648 9457 656 2433 980 3622 1026 3762 54 166 82 91 443 -1209 470 -1692
2194 -7956 2776 -10081 297 -1088 365 -1323 455 -1585 101 -293 154 -380 249
-407 166 -47 360 -53 2211 -66 1316 -10 2179 -10 4165 0 1378 7 2649 16 2825
21 300 7 323 9 363 29 54 27 102 94 142 195 46 116 129 425 5175 19311 1900
7113 2429 9087 2447 9144 13 42 62 65 173 81 115 16 875 29 1785 30 1163 1
1276 11 1383 129 63 70 79 158 99 572 19 383 19 8320 0 8712 -23 479 -43 561
-151 617 -77 39 -248 54 -806 71 -501 16 -12323 24 -13655 10 -1516 -17 -1658
-27 -1748 -125 -59 -64 -73 -127 -92 -421 -40 -620 -40 -8057 0 -8900 11 -235
23 -372 41 -455 12 -58 59 -125 106 -152 78 -46 125 -49 926 -58 1047 -12
1269 -30 1309 -103 16 -31 11 -158 -12 -292 -74 -425 -278 -1261 -1152 -4720
-336 -1331 -754 -2988 -929 -3682 -309 -1227 -346 -1363 -380 -1363 -36 0
-414 1435 -940 3561 -928 3761 -2867 11679 -3505 14319 -369 1525 -498 1999
-598 2198 -12 24 -53 79 -92 122 l-69 79 -2360 0 c-3100 1 -3379 -6 -3496 -89
-31 -23 -65 -116 -157 -440 -261 -911 -380 -1389 -2122 -8480 -2329 -9480
-2506 -10197 -2665 -10745 -72 -247 -99 -299 -130 -251 -215 328 -2631 9575
-2528 9677 29 28 415 57 1153 84 682 26 857 47 1009 125 202 103 259 325 281
1095 28 962 -1 6795 -40 8100 -16 529 -33 714 -73 795 -18 37 -28 46 -57 52
-320 64 -5523 101 -11230 81z m8680 -5068 l0 -2375 -902 0 c-1525 0 -1963 -30
-2142 -147 l-39 -25 6 -137 c10 -221 61 -487 277 -1421 899 -3895 4316 -17609
5130 -20590 160 -585 174 -624 268 -722 75 -79 146 -113 234 -113 60 0 70 3
98 30 144 138 383 990 1294 4615 931 3705 5001 20246 5631 22883 45 192 86
351 89 354 15 15 333 22 1058 22 l787 1 10 -37 c6 -21 440 -1793 965 -3938
4223 -17249 5536 -22529 5883 -23645 68 -220 74 -231 146 -274 75 -44 109 -46
144 -8 94 101 245 534 537 1542 1096 3788 4797 18613 5200 20827 51 281 59
338 60 453 1 132 -11 157 -88 194 -218 103 -733 136 -2168 136 l-788 0 0 2375
0 2375 5565 0 5565 0 -2 -2367 -3 -2368 -440 -7 c-2118 -33 -2295 -44 -2340
-152 -100 -240 -1649 -5945 -3890 -14326 -2159 -8077 -3630 -13533 -3826
-14193 -25 -83 -37 -90 -185 -106 -277 -30 -742 -35 -3098 -35 l-2379 -1 -484
1790 c-1448 5360 -2013 7445 -2844 10495 -887 3253 -1520 5553 -1740 6325
-289 1009 -465 1461 -629 1609 -63 56 -112 76 -198 76 -138 0 -200 -56 -257
-232 -181 -559 -1065 -3760 -2555 -9253 -2063 -7606 -2559 -9399 -2825 -10215
-112 -342 -178 -487 -233 -509 -60 -24 -793 -45 -2162 -61 -1005 -12 -2423
-12 -2772 -1 -242 8 -260 10 -310 33 -71 33 -124 80 -153 137 -97 194 -348
1043 -884 2991 -505 1839 -1136 4183 -3266 12130 -2698 10066 -3414 12714
-3526 13045 -43 125 -85 201 -145 261 -79 81 -175 121 -356 148 -191 30 -440
36 -1410 36 l-968 0 0 2375 0 2375 5530 0 5530 0 0 -2375z"/>
<path d="M2555 39240 c-1527 -11 -2137 -28 -2318 -65 -85 -18 -119 -42 -151
-108 -53 -109 -63 -279 -77 -1292 -14 -1027 -6 -7531 10 -7899 22 -517 42
-599 167 -672 114 -67 228 -74 1235 -74 l829 0 0 -9440 0 -9440 -677 0 c-891
0 -1145 -13 -1313 -66 -88 -28 -136 -64 -172 -130 -22 -40 -28 -71 -37 -169
-37 -417 -51 -2025 -51 -6125 l0 -3345 138 -149 137 -148 12340 6 c13466 7
14825 12 15355 57 265 22 313 51 345 206 50 244 55 756 59 5448 4 4319 -3
6286 -23 6725 -19 409 -35 497 -105 566 -71 71 -154 86 -611 106 -213 10
-1059 13 -3515 12 -3000 0 -4225 -8 -4749 -31 l-155 -6 -43 -40 c-150 -138
-173 -388 -173 -1929 l0 -858 -2655 0 -2655 0 0 2454 0 2454 143 6 c78 3 639
13 1247 21 608 9 1380 20 1715 25 664 10 2258 26 4045 40 674 6 1164 14 1207
20 95 14 161 39 185 71 27 36 35 115 48 454 22 596 30 1838 30 4520 0 3548
-10 4083 -77 4237 -20 48 -61 67 -177 84 -201 30 -507 34 -2856 44 -3361 13
-4147 23 -5135 68 l-370 17 -3 2118 -2 2117 2529 0 2529 0 6 -597 c13 -1159
46 -1580 143 -1796 37 -82 64 -102 170 -121 695 -126 3960 -173 7023 -101
1509 35 1907 55 2060 103 70 22 134 82 150 143 33 123 47 339 60 949 16 736
24 7380 11 9150 -13 1764 -21 2027 -68 2178 -19 62 -72 116 -130 131 -113 30
-447 47 -1293 63 -691 13 -22483 20 -24325 8z m23215 -2707 c0 -16 -9 -233
-20 -483 -45 -1053 -60 -2265 -60 -4942 l0 -1858 -1347 0 c-1648 0 -2815 19
-2842 45 -6 7 -27 319 -102 1553 l-54 872 -5127 0 -5128 0 0 -947 c0 -522 -5
-2091 -10 -3488 -9 -2544 -2 -4387 20 -4745 11 -184 24 -278 40 -294 32 -32
1025 -45 4075 -56 2657 -9 3882 -22 4090 -41 61 -5 154 -16 207 -24 54 -8 102
-15 108 -15 7 0 10 -679 10 -2045 l0 -2045 -42 0 c-24 0 -500 -9 -1058 -20
-2157 -41 -3725 -60 -5185 -60 -1347 -1 -2049 -18 -2191 -53 -39 -10 -49 -17
-55 -39 -12 -47 -36 -1821 -59 -4468 -21 -2480 -43 -5640 -38 -5645 2 -3 657
0 1454 5 797 5 2160 14 3029 20 3399 22 5916 55 6083 79 43 6 47 9 53 41 29
136 50 801 75 2278 l7 402 2023 0 2024 0 0 -452 c0 -637 -30 -7261 -33 -7264
-1 -1 -4266 -6 -9477 -13 -5211 -6 -10392 -14 -11513 -17 l-2037 -7 2 2369 3
2369 215 17 c529 41 1160 65 1803 68 l97 0 0 12055 0 12055 -32 0 c-61 0
-1942 80 -2015 86 l-73 6 0 2364 0 2364 11540 0 11540 0 0 -27z"/>
<path d="M93430 39240 c-1169 -11 -1575 -29 -1688 -76 -18 -7 -71 -44 -118
-80 l-84 -67 0 -66 c0 -36 -13 -642 -30 -1346 -46 -1987 -51 -2327 -51 -3585
0 -1159 7 -1695 36 -2715 42 -1452 60 -1726 125 -1861 12 -24 48 -68 81 -98
136 -127 152 -128 2429 -172 459 -9 838 -19 841 -23 3 -3 11 -3669 18 -8146 6
-4477 14 -8630 17 -9229 l6 -1089 -608 7 c-985 11 -2047 26 -2050 29 -2 1 -8
808 -14 1792 -12 2015 -26 3176 -40 3405 -19 280 -38 357 -105 419 -71 65
-162 83 -535 102 -308 17 -5618 24 -6930 9 -1297 -14 -1553 -21 -1615 -49 -50
-22 -149 -111 -171 -152 -61 -119 -86 -1642 -126 -7671 l-12 -1856 80 -84 c43
-47 1500 -1556 3236 -3355 l3158 -3270 181 -6 c100 -4 2412 -7 5138 -6 l4956
0 406 442 c223 243 1118 1218 1990 2167 871 949 2238 2437 3037 3307 l1452
1582 0 10740 0 10739 103 6 c56 3 381 13 722 21 1389 34 1629 49 1776 104 42
16 84 47 167 123 l112 101 0 3911 c-1 3833 -8 5141 -30 5481 -26 384 -60 439
-295 470 -182 23 -587 35 -1522 45 -997 11 -12855 10 -14043 0z m13200 -5115
l0 -2435 -1027 0 c-1030 0 -1515 -9 -1654 -31 -84 -13 -145 -40 -153 -67 -21
-64 -28 -2999 -33 -12585 l-5 -10478 -2526 -2757 c-1390 -1516 -2591 -2827
-2670 -2913 l-142 -156 -1898 -6 c-1043 -4 -2844 -7 -4002 -7 l-2106 0 -2364
2451 c-1301 1349 -2406 2495 -2456 2548 l-91 96 18 1325 c35 2609 53 3814 65
4337 l7 282 51 5 c110 12 4002 53 4013 43 3 -3 11 -462 19 -1019 46 -3453 63
-4517 70 -4574 l5 -41 226 -6 c124 -4 1897 -7 3940 -7 l3713 0 0 11805 0
11805 -47 0 c-27 0 -784 20 -1683 45 -899 25 -1636 45 -1637 45 -2 0 -3 1064
-3 2365 l0 2365 6185 0 6185 0 0 -2435z"/>
</g>
</svg>
