<svg id="eAjSYUbKTDE1" xmlns="http://www.w3.org/2000/svg" xmlns:xlink="http://www.w3.org/1999/xlink" viewBox="0 0 10932 3926" shape-rendering="geometricPrecision" text-rendering="geometricPrecision" width="10932" height="3926"><path d="M142.1,148.5h2572.654948v979.419419h-710.3223v-245.451687h-758.832648v691.727474h855.525736v706.80479h-855.525736v734q788.584367,0,788.584367,0t0-284.2067h680.570581v1050.782593h-2562.556869v-732.375893h203.815258v-2166.732264h-213.913337L142.1,148.5Z" transform="translate(0-4.888071)" fill="none" stroke="#1e568f" stroke-width="300" stroke-linecap="square" stroke-dasharray="18565.06315"/><path d="M3331.556634,143.611929L4712,148.500004v733.967732h-297.909498L4849.5,2650.2L5466,148.500004h379.4L6462.9,2650.2L6886.320572,882.467736h-292.520572v-733.967732h1400.096166l5.058084,733.967732h-319.720986L6908.550256,3776.687818h-779.82684L5653.875391,2102.1L5164.607505,3776.687818l-779.188781.000001L3623.71157,882.467736h-292.154936v-738.855807Z" fill="none" stroke="#1e568f" stroke-width="300" stroke-linecap="square" stroke-dasharray="27126.732128"/><path d="M9286.88546,148.500004h1495.403429v733.967732h-267.989029v2241.300208l-614.356355,652.919875h-923.79264l-559.429336-584.599886v-779.266593h686.561777v567.901628h534.658022v-2098.255232h-351.055868v-733.967732Z" fill="none" stroke="#1e568f" stroke-width="300" stroke-linecap="square" stroke-dasharray="13191.900772"/></svg>
