<svg id="eFl56wbV7DL1" xmlns="http://www.w3.org/2000/svg" xmlns:xlink="http://www.w3.org/1999/xlink" viewBox="0 0 300 300" shape-rendering="geometricPrecision" text-rendering="geometricPrecision"><g transform="translate(-.138367-33.224014)"><path d="M110.205753,93.711672v56.288328h68.546104v-56.288328h-68.546104Z" transform="translate(5.659564 44.048879)" fill="#fff" stroke="#fff" stroke-width="0.6"/><path d="M110.205753,93.711672v56.288328h68.546104v-56.288328h-68.546104Z" transform="translate(5.659564-17.237889)" fill="#fff" stroke="#fff" stroke-width="0.6"/><path d="M115.726948,149.665448h68.546104v13.538966l-2.200695,3.488652v28.375l-4.088405,4.003576h-56.244642l-4.069182-4.003576v-28.375l-1.94318-3.488652v-13.538966Z" transform="translate(.138369 49.385103)" fill="#fff" stroke="#fff" stroke-width="0.6"/><path d="M121.600941,242.337975h56.244642l-22.97152,36.513704h-4.874063-5.314617l-23.084442-36.513704Z" transform="translate(.276738 11.122576)" fill="#fff" stroke="#fff" stroke-width="0.6"/></g><g transform="translate(-.548334-24.57347)"><line x1="0" y1="-22.296443" x2="0" y2="22.296443" transform="translate(122.426014 95.967396)" fill="none" stroke="#1d5990" stroke-width="3"/><line x1="0" y1="-22.296443" x2="0" y2="22.296443" transform="translate(136.399191 95.967396)" fill="none" stroke="#1d5990" stroke-width="3"/><line x1="0" y1="-22.296443" x2="0" y2="22.296443" transform="translate(150 95.967396)" fill="none" stroke="#1d5990" stroke-width="3"/><line x1="0" y1="-22.296443" x2="0" y2="22.296443" transform="matrix(-1 0 0 1 163.775519 95.967396)" fill="none" stroke="#1d5990" stroke-width="3"/><line x1="0" y1="-22.296443" x2="0" y2="22.296443" transform="translate(178.670656 95.967396)" fill="none" stroke="#1d5990" stroke-width="3"/></g></svg>
