<svg height="512" viewBox="0 0 60 60" width="512" xmlns="http://www.w3.org/2000/svg"><g id="Page-1" fill="none" fill-rule="evenodd"><g id="023---Taped-Box" fill="rgb(0,0,0)" fill-rule="nonzero" transform="translate(0 -1)"><path id="Shape" d="m57.978 10.457-27-9.31c-.6341232-.21798232-1.3228768-.21798232-1.957 0l-27 9.31c-1.2095522.4175776-2.02110055 1.5563955-2.021 2.836v35.414c.00004663 1.2798664.81205302 2.4187636 2.022 2.836l27 9.31c.6339946.2187509 1.3230054.2187509 1.957 0l27-9.31c1.2095522-.4175776 2.0211005-1.5563955 2.021-2.836v-35.414c-.0000466-1.2798664-.812053-2.4187636-2.022-2.836zm-27.648 10.351c-.2252974.0822205-.4731965.0772268-.695-.014l-5.427-1.866 25.792-9.107 6.127 2.113zm-20.33-4.652 10 3.444v12.7l-4.241-4.948c-.2984659-.3482943-.7956152-.4488784-1.206-.244l-4.553 2.274zm2.437-1.277 26.187-8.979 8.335 2.874-25.794 9.107zm17.238-11.841c.2108086-.07330858.4401914-.07330858.651 0l5.224 1.8-26.191 8.982-5.484-1.886zm-27.675 45.669v-35.307l6 2.064v15.536c-.00016156.346618.17918234.6685998.47396906.8509316.29478671.1823318.66296932.1990067.97303094.0440684l5.3-2.651 5.492 6.407c.2720726.3191496.714382.4346285 1.1077444.2892117.3933623-.1454167.6541997-.5208323.6532556-.9402117v-14.717l6.95 2.39c.016.006.034.008.05.014v36.043l-26.326-9.078c-.4031999-.1390389-.67384228-.5185004-.674-.945zm55.326.945-26.326 9.078v-36.04h.015l26.9850221-9.29-.0000221 35.3c.0028416.4290695-.2683585.8121297-.674.952z"/></g></g></svg>