<svg xmlns="http://www.w3.org/2000/svg" version="1.1" xmlns:xlink="http://www.w3.org/1999/xlink" xmlns:svgjs="http://svgjs.dev/svgjs" viewBox="0 0 800 800" opacity="0.38"><defs><linearGradient x1="50%" y1="0%" x2="50%" y2="100%" id="uundulate-grad"><stop stop-color="hsl(209, 66%, 34%)" stop-opacity="1" offset="45%"></stop><stop stop-color="hsl(182, 25%, 50%)" stop-opacity="1" offset="100%"></stop></linearGradient></defs><g stroke-width="1" stroke="url(#uundulate-grad)" fill="none"><path d="M1082.8638631073507 195.51542648290138C1167.1143936258543 664.6630728925782 1263.1008014687727 1270.2736221494938 974.163601094034 1482.272798971685C685.2264007192957 1694.2719757938762 -101.07804786325187 1487.9240230491064 -304.0346986913944 1213.1114752294202C-506.9913495195369 938.2989274097336 -182.0691048178461 576.2449400672306 -0.028322881051622062 163.1725694371919C182.01245905574285 -249.8998011928469 344.1585158576347 -776.3739990126204 569.7610546052185 -769.6359037947645C795.3635933528026 -762.8978085769088 998.6133325888468 -273.63221992677575 1082.8638631073507 195.51542648290138C1167.1143936258543 664.6630728925782 1263.1008014687727 1270.2736221494938 974.163601094034 1482.272798971685 "></path><path d="M1059.316791251817 202.5666586616967C1140.662131062786 655.5368000227643 1233.33866277319 1240.2642268915106 954.3648141355113 1444.9530872715568C675.3909654978329 1649.6419476516035 -83.7995365818681 1450.4094415532054 -279.7576822090403 1185.073188485922C-475.7158278362124 919.7369354186387 -161.99779846906256 570.1675683293251 13.765715125083716 171.3390725485981C189.5292287192301 -227.48942323212907 346.0840421831258 -735.8093383684621 563.907183042862 -729.3035912615669C781.7303239025982 -722.7978441546716 977.9714514408479 -250.40348269937067 1059.316791251817 202.5666586616967C1140.662131062786 655.5368000227643 1233.33866277319 1240.2642268915106 954.3648141355113 1444.9530872715568 "></path><path d="M1035.7697499138615 209.6179518756485C1114.209899017296 646.4105881881064 1203.5765545951856 1210.2548926686832 934.5660576945668 1407.6334366065853C665.5555607939482 1605.0119805444874 -66.52099478290643 1412.8949210924607 -255.48063520910807 1157.0349627775804C-444.4402756353097 901.1750044626997 -141.926461602701 564.090257626576 27.559783648797293 179.50563669516032C197.0460289002956 -205.078984236255 348.0095990261949 -695.2446166891477 558.0533419980834 -688.971217693213C768.0970849699718 -682.6978186972783 957.3296008104269 -227.17468443680946 1035.7697499138615 209.6179518756485C1114.209899017296 646.4105881881064 1203.5765545951856 1210.2548926686832 934.5660576945668 1407.6334366065853 "></path><path d="M1012.2227085759059 216.6689399138188C1087.757666971806 637.2840711776671 1173.814446417181 1180.2452532700745 914.7673012536222 1370.3134807658316C655.7201560900635 1560.3817082615892 -49.24245298394453 1375.3800954559338 -231.2035882091758 1128.9964318934562C-413.16472343440705 882.6127683309792 -121.85512473633935 558.0126417480451 41.35385217251087 187.67189566594152C204.5628290813611 -182.6688504161623 349.935155869264 -654.6802001856145 552.1995009533048 -648.6391493006403C754.4638460373455 -642.5980984156661 936.6877501800061 -203.9461913500295 1012.2227085759059 216.6689399138188C1087.757666971806 637.2840711776671 1173.814446417181 1180.2452532700745 914.7673012536222 1370.3134807658316 "></path><path d="M988.6757587906848 223.72017209261435C1061.30552647905 628.157798307853 1144.0524297919108 1150.2358580120908 894.9686363654118 1332.9937690657039C645.8848429389132 1515.751680119317 -31.963819632248374 1337.8655139600323 -206.9264496565092 1100.958145149958C-381.88907968077 864.0507763398839 -101.78369631724331 551.9352700101397 55.14801224895882 195.83839877734772C212.07972081516084 -160.25847245544446 351.8608042650676 -614.1155395414562 546.3457514612605 -608.3068367674425C740.8306986574537 -602.4981339934288 916.0459911023195 -180.71745412262453 988.6757587906848 223.72017209261435C1061.30552647905 628.157798307853 1144.0524297919108 1150.2358580120908 894.9686363654118 1332.9937690657039 "></path><path d="M965.1287174527292 230.77146530656591C1034.85329443356 619.0315864731951 1114.2903216139061 1120.2265237892632 875.1698799244673 1295.6741184007315C636.0494382350287 1471.1217130122004 -14.685277833286591 1300.3509934992876 -182.64940265657697 1072.919919441616C-350.61352747986734 845.4888453839446 -81.71235945088176 545.8579593073903 68.94208077267228 204.00496292390994C219.59652099622633 -137.8480334595704 353.7863611081367 -573.5508178621417 540.4919104164821 -567.9744631990886C727.1974597248275 -562.3981085360356 895.4041404718985 -157.48865586006332 965.1287174527292 230.77146530656591C1034.85329443356 619.0315864731951 1114.2903216139061 1120.2265237892632 875.1698799244673 1295.6741184007315 "></path><path d="M941.5816761147737 237.8225143798927C1008.4010623880699 609.9051304979123 1084.5282134359015 1090.2169454258108 855.3711234835228 1258.3542235951345C626.2140335311442 1426.491501764459 2.5932639656753054 1262.8362288979174 -158.3723556566447 1044.881449592649C-319.3379752789647 826.9266702873806 -61.64102258452016 539.7804044640159 82.73614929638575 212.17128292984717C227.1133211772917 -115.43783860432154 355.7119179512059 -532.9863403234522 534.6380693717035 -527.6423337713596C713.5642207922012 -522.2983272192671 874.7622898414777 -134.2601017381271 941.5816761147737 237.8225143798927C1008.4010623880699 609.9051304979123 1084.5282134359015 1090.2169454258108 855.3711234835228 1258.3542235951345 "></path><path d="M918.0346652943965 244.8738075938445C981.9488608601578 600.7789186632544 1054.7661357754753 1060.2076112029833 835.5723975601563 1221.0345729301625C616.3786593448374 1381.8615346573424 19.871836282215213 1225.3217084371722 -134.09527813913434 1016.843223884307C-288.06239256048383 808.3647393314416 -41.56965520058043 533.7030937612667 96.53024833767745 220.33784707640962C234.63015187593533 -93.02739960844747 357.63750531185315 -492.42161864413765 528.784258844503 -487.3099602030057C699.9310123771529 -482.1983017618737 854.1204697286348 -111.03130347556589 918.0346652943965 244.8738075938445C981.9488608601578 600.7789186632544 1054.7661357754753 1060.2076112029833 835.5723975601563 1221.0345729301625 "></path><path d="M894.487623956441 251.92491770232732C955.4966288146677 591.6525237231281 1025.0040275974707 1030.1980938746874 815.7736411192118 1183.7147391597225C606.5432546409529 1337.2313844447572 37.150378081176996 1187.8070048709587 -109.81823113920211 988.8048150704963C-256.7868403595812 789.8026252700338 -21.498318334218823 527.6255999530485 110.32431686139103 228.5042281175032C242.14695205700082 -70.61714371804214 359.56306215492236 -451.85708007029194 522.9304177997246 -446.9777697401205C686.2977734445267 -442.09845940994904 833.478619098214 -87.80268831847332 894.487623956441 251.92491770232732C955.4966288146677 591.6525237231281 1025.0040275974707 1030.1980938746874 815.7736411192118 1183.7147391597225 "></path><path d="M870.9406131360636 258.97614988112275C929.0444272867555 582.5262508533137 995.2419499370442 1000.188698616704 795.9749151958454 1146.3950274595943C596.7078804546463 1292.6013563024849 54.4289503977169 1150.2924233750575 -85.5411536216917 960.766528326998C-225.51125764110037 771.2406332789383 -1.4269509502790925 521.5482282151429 124.11841590268261 236.6707312289094C249.66378275564432 -48.20676575732432 361.4886495155697 -411.2924194261337 517.0766072725241 -406.6454572069228C672.6645650294786 -401.99849498771187 812.8367989853714 -64.57395109106835 870.9406131360636 258.97614988112275C929.0444272867555 582.5262508533137 995.2419499370442 1000.188698616704 795.9749151958454 1146.3950274595943 "></path><path d="M847.393571798108 266.02744309507443C902.5921952412655 573.4000390186561 965.4798417590398 970.1793643938765 776.1761587549006 1109.0753767946223C586.8724757507616 1247.9713891953684 71.70749219667869 1112.7779029143123 -61.26410662175948 932.7283026186558C-194.2357054401977 752.6787023229995 18.64438591608257 515.4709175123935 137.91248442639608 244.83729537547174C257.1805829367097 -25.796326761450246 363.4142063586389 -370.7276977468192 511.22276622774564 -366.31308363856886C659.0313260968524 -361.8984695303185 792.1949483549502 -41.34515282850714 847.393571798108 266.02744309507443C902.5921952412655 573.4000390186561 965.4798417590398 970.1793643938765 776.1761587549006 1109.0753767946223 "></path><path d="M823.8465914953088 273.07855320355736C876.1400242309317 564.2736440785293 935.7177946161914 940.1698470655804 756.3774633491123 1071.7555430241819C577.0371320820333 1203.3412389827831 88.98609503079683 1075.2631993480984 -36.98699858667101 904.689893804845C-162.9600922041388 734.1165882615915 38.71578381760037 509.3934237041756 151.7066139852659 253.00367641656533C264.69744415293144 -3.3860708710450353 365.3398242368643 -330.16315917297345 505.36898621812327 -325.9808931756836C645.3981481993824 -321.7986271783938 771.5531587596856 -18.116537671414676 823.8465914953088 273.07855320355736C876.1400242309317 564.2736440785293 935.7177946161914 940.1698470655804 756.3774633491123 1071.7555430241819 "></path><path d="M800.299489122197 280.1297853823527C849.6877311502853 555.1473712087152 905.9556254030304 910.1604518075967 736.5786458730113 1034.4358313240537C567.2016663429923 1158.7112108405104 106.26457579460237 1037.7486178521972 -12.710012621894975 876.6516070613466C-131.68460103839237 715.554596270496 58.78705964880578 503.3160519662699 165.50062147382323 261.1701795279713C272.2141832988407 19.024307089672675 367.26532004477724 -289.5984985288152 499.5150841381884 -285.6485806424859C631.7648482315999 -281.69866275615664 750.9112470941086 5.112199555990401 800.299489122197 280.1297853823527C849.6877311502853 555.1473712087152 905.9556254030304 910.1604518075967 736.5786458730113 1034.4358313240537 "></path><path d="M776.7524477842414 287.1808954908357C823.2354991047953 546.0209762685886 876.193517225026 880.1509344793005 716.7798894320667 997.1159975536129C557.3662616391076 1114.0810606279254 123.54311759356415 1000.2339142859835 11.567034378037249 848.6131982475358C-100.40904883748965 696.9924822090884 78.85839651516733 497.238558158052 179.2946899975367 269.336560569065C279.7309834799062 41.434562980078 369.19087688784634 -249.03395995496948 493.66124309341 -245.31639017960072C618.1316092989734 -241.59882040423201 730.2693964636876 28.340814713082864 776.7524477842414 287.1808954908357C823.2354991047953 546.0209762685886 876.193517225026 880.1509344793005 716.7798894320667 997.1159975536129 "></path><path d="M753.2054674814422 294.2321887047874C796.7833280944615 536.8947644339307 846.4314700821776 850.1416002564731 696.9811940262784 959.7963468886412C547.5309179703792 1069.4510935208089 140.82172042768224 962.7193938252385 35.844142413125724 820.5749725391938C-69.13343560143073 678.4305512531491 98.92979441668524 491.1612474553026 193.08881955640652 277.50312471562734C287.2478446961278 63.84500197595207 371.1164947660718 -208.46923827565496 487.80746308378764 -204.98401661124677C604.4984314015035 -201.4987949468386 709.6276068684228 51.56961297564408 753.2054674814422 294.2321887047874C796.7833280944615 536.8947644339307 846.4314700821776 850.1416002564731 696.9811940262784 959.7963468886412 "></path><path d="M729.6583651083304 301.28332933084835C770.3310350138149 527.7684000113823 816.6693008690168 820.1321134457553 677.1823765501775 922.4765436357784C537.6954522313383 1024.8209738258017 158.10020119148783 925.2047207766027 60.121128377901755 792.536594242961C-37.85794443568432 659.8684677093192 119.0010702478906 485.0837841646626 206.88282704496373 285.66953627429905C294.7645838420369 86.25528838393552 373.0419905739848 -167.90466918423107 481.9535610038529 -164.65179563078345C590.865131433721 -161.39892207733584 688.9856952028458 74.79825865031466 729.6583651083304 301.28332933084835C770.3310350138149 527.7684000113823 816.6693008690168 820.1321134457553 677.1823765501775 922.4765436357784 "></path><path d="M706.1113848055311 308.3345004744875C743.8788640034811 518.6420661064117 786.9072537261686 790.1226571526154 657.3836811443892 885.1567709004939C527.8601085626099 980.1908846483727 175.37880402560586 887.690078245545 84.39823641299023 764.4982464643062C-6.582331199625401 641.3064146830677 139.07246814940845 479.0063513916007 220.67695660383356 293.8359783505489C302.28144505825867 108.66560530949698 374.96760845221013 -127.34006957522911 476.0997809942305 -124.31954413274201C577.2319535362509 -121.29901869025491 668.3439056075812 98.02693484256338 706.1113848055311 308.3345004744875C743.8788640034811 518.6420661064117 786.9072537261686 790.1226571526154 657.3836811443892 885.1567709004939 "></path><path d="M682.5643739851537 315.3856716181267C717.4266624755691 509.5157322014413 757.1451760657421 760.1132008594755 637.5849552210227 847.8369981652095C518.0247343763034 935.560795470944 192.65737634214577 850.1754357144875 108.67531393050058 736.4598986856518C24.69325151885539 622.7443616568162 159.14383553334818 472.9289186185389 234.4710556451252 302.0024204267987C309.7982757569023 131.07592223505856 376.89319581285736 -86.77546996622709 470.24597046703013 -83.98729263470057C563.5987451212028 -81.19911530317398 647.7020854947383 121.25561103481209 682.5643739851537 315.3856716181267C717.4266624755691 509.5157322014413 757.1451760657421 760.1132008594755 637.5849552210227 847.8369981652095 "></path><path d="M659.0173326471983 322.43690379692225C690.9744304300789 500.3894593316272 727.3830678877376 730.1038056014918 617.7861987800782 810.5172864650813C508.1893296724187 890.9307673286712 209.9359181411076 812.6608542185861 132.95236093043286 708.4216119421535C55.96880371975806 604.1823696657208 179.2151723997098 466.85154688063335 248.26512416883872 310.1689235382048C317.31507593796766 153.48630019577627 378.8187526559266 -46.210809322068826 464.3921294222515 -43.65498010150287C549.9655061885765 -41.09915088093686 627.0602348643174 144.48434826221705 659.0173326471983 322.43690379692225C690.9744304300789 500.3894593316272 727.3830678877376 730.1038056014918 617.7861987800782 810.5172864650813 "></path><path d="M635.4702913092427 329.48810545813944C664.5221983845887 491.263155944235 697.620959709733 700.09437982593 597.9874423391336 773.1975442473754C498.3539249685341 846.3007086688206 227.2144599400694 775.1462422051068 157.22940793036508 680.3832946810771C87.24435592066072 585.6203471570473 199.2865092660714 460.7741446251496 262.05919269255224 318.3353961320329C324.83187611903304 175.89664763891597 380.7443094989958 -5.646179195488742 458.538288377473 -3.322698085883246C536.3322672559502 -0.9992169762778076 606.4183842338966 167.71305497204395 635.4702913092427 329.48810545813944C664.5221983845887 491.263155944235 697.620959709733 700.09437982593 597.9874423391336 773.1975442473754 "></path><path d="M611.9232804888653 336.5392155666225C638.0699968566768 482.1367610041084 667.8588820493067 670.0848624976339 578.1887164157671 735.8777104769347C488.5185507822275 801.6705584562353 244.49303225660935 737.6315386388928 181.50648544787543 652.3448858672663C118.51993863914157 567.0582330956395 219.35787665001112 454.69665081693154 275.8532917338439 326.50177717312636C332.34870681767666 198.30690352932123 382.66989685964313 34.918359378357025 452.6844778502725 37.00949237700195C522.6990588409021 39.100625375646814 585.7765641210538 190.9416701291364 611.9232804888653 336.5392155666225C638.0699968566768 482.1367610041084 667.8588820493067 670.0848624976339 578.1887164157671 735.8777104769347 "></path><path d="M588.3762238921207 343.5904477454178C611.6177495523976 473.0104881342943 638.096758612513 640.0754672396503 558.3899447160334 698.5579987768065C478.68313081955375 757.0405303139627 261.7715587967821 700.1169571429917 205.7835171890186 624.3065991237679C149.79547558125518 548.4962411045442 239.42919825758366 448.619279079026 289.64734499876835 334.66828028453256C339.8654917399531 220.717281490039 384.5954384439232 75.48302002251529 446.83062154670506 77.34180491019964C509.0658046494867 79.20058979788399 565.1346982318438 214.17040735654143 588.3762238921207 343.5904477454178C611.6177495523976 473.0104881342943 638.096758612513 640.0754672396503 558.3899447160334 698.5579987768065 "></path><path d="M564.8291825541652 350.64167992421324C585.1655175069075 463.8842152644802 608.3346504345084 610.0660719816667 538.5911882750888 661.2382870766783C468.84772611566916 712.4105021716899 279.0501005957439 662.6023756470904 230.06056418895088 596.2683123802695C181.07102778215784 529.9342491134487 259.50053512394527 442.54190734112035 303.44141352248187 342.83478339593853C347.38229192101846 243.12765945075682 386.5209952869924 116.0476806666735 440.97678050192644 117.67411744339734C495.4325657168605 119.30055422012117 544.4928476014229 237.3991445839464 564.8291825541652 350.64167992421324C585.1655175069075 463.8842152644802 608.3346504345084 610.0660719816667 538.5911882750888 661.2382870766783 "></path><path d="M541.2821869925768 357.69279003269617C558.7133312377846 454.7578203243535 578.5725880328711 580.0565546533705 518.7924776105114 623.9184533062376C459.01236718815176 667.7803519591048 296.3286881710729 625.0876720808766 254.3376569652503 568.2299035664587C212.3466257594277 511.3721350520409 279.5719177666741 436.4644135329022 317.23552782256263 351.00116443703223C354.89913787845114 265.5379153411621 388.4465979064287 156.61221924051927 435.122985233515 158.00630790628253C481.79937256060134 159.4003965720458 523.8510427473691 260.62775974103886 541.2821869925768 357.69279003269617C558.7133312377846 454.7578203243535 578.5725880328711 580.0565546533705 518.7924776105114 623.9184533062376 "></path><path d="M517.7351456546214 364.7440527290697C532.2610991922943 445.6315779721175 548.8104798548666 550.047189912965 498.9937211695668 586.5987721236877C449.17696248426705 623.1503543344103 313.6072299700347 587.5731211025534 278.6147039651825 540.1916473405386C243.62217796033036 492.81017357852363 299.64325463303567 430.3870723125748 331.0295963462761 359.16769806601644C362.4159380595165 287.948323819458 390.3721547494979 197.17691040225566 429.2691441887365 198.33865095705835C468.1661336279751 199.5003915118611 503.2091921169483 283.85652748602195 517.7351456546214 364.7440527290697C532.2610991922943 445.6315779721175 548.8104798548666 550.047189912965 498.9937211695668 586.5987721236877 "></path><path d="M494.1881043166659 371.795254390287C505.80886714680423 436.50527458472527 519.048371676862 520.0377641374032 479.19496472862215 549.2790299059814C439.34155778038235 578.5202956745595 330.8857717689965 550.058509089074 302.8917509651148 512.1533300794621C274.897730161233 474.2481510698502 319.71459149939733 424.3096700570911 344.82366486998967 367.3341706598444C369.932738240582 310.3586712625976 392.29771159256705 237.74154052883574 423.415303143958 238.67093297267792C454.5328946953489 239.60032541652015 482.5673414865273 307.08523419584884 494.1881043166659 371.795254390287C505.80886714680423 436.50527458472527 519.048371676862 520.0377641374032 479.19496472862215 549.2790299059814 "></path><path d="M470.6411087550775 378.84644079271527C479.35668087768136 427.3789559385439 489.28630927522454 490.02832310305246 459.39625406404474 511.95927242948596C429.50619885286494 533.8902217559196 348.16435934432553 512.5438818168054 327.1688437414142 484.11499755959653C306.17332813850294 455.68611330238764 339.7859741421261 418.2322525428183 358.6177791700704 375.5006279948833C377.44958419801463 332.7690034469482 394.2233142120034 278.3061553966268 417.56150787554657 279.0031997295085C440.89970153908973 279.7002440623901 461.9255366324736 330.3139256468866 470.6411087550775 378.84644079271527C479.35668087768136 427.3789559385439 489.28630927522454 490.02832310305246 459.39625406404474 511.95927242948596 "></path><path d="M447.094067417122 385.89761193635445C452.9044488321912 418.2526220335736 459.52420109722004 460.01886680991254 439.59749762310014 474.6394996942016C419.67079414898024 489.2601325784907 365.4429011432873 475.02923928574796 351.44589074134643 456.076649780942C337.4488803394056 437.12406027613605 359.8573110084877 412.1548197697565 372.4118476937839 383.66707007113314C384.96638437908007 355.1793203725098 396.1488710550726 318.87075500562884 411.70766683076806 319.3354512275499C427.2664626064635 319.800147449471 441.2836860020527 353.54260183913533 447.094067417122 385.89761193635445C452.9044488321912 418.2526220335736 459.52420109722004 460.01886680991254 439.59749762310014 474.6394996942016 "></path><path d="M423.5470108203774 392.9487983387827C426.452201527912 409.1263033873922 429.7620776604264 430.00942577556174 419.7987259233665 437.3197422177063C409.8353741863065 444.6300586598508 382.7214276834601 437.51461201347945 375.72292248248965 428.0383172610765C368.7244172815192 418.56202250867346 379.92863261606027 406.0774022554837 386.20590095870836 391.83352740617204C392.48316930135644 377.58965255686036 398.0744126393527 359.43536987341986 405.85381052720044 359.66771798438043C413.63320841504816 359.90006609534095 420.64182011284277 376.77129329017316 423.5470108203774 392.9487983387827C426.452201527912 409.1263033873922 429.7620776604264 430.00942577556174 419.7987259233665 437.3197422177063 "></path></g></svg>