<svg xmlns="http://www.w3.org/2000/svg" version="1.1" xmlns:xlink="http://www.w3.org/1999/xlink" xmlns:svgjs="http://svgjs.dev/svgjs" viewBox="0 0 800 800" opacity="0.3"><defs><linearGradient x1="50%" y1="0%" x2="50%" y2="100%" id="uundulate-grad"><stop stop-color="hsl(182, 25%, 50%)" stop-opacity="1" offset="45%"></stop><stop stop-color="hsl(209, 66%, 34%)" stop-opacity="1" offset="100%"></stop></linearGradient></defs><g stroke-width="1" stroke="url(#uundulate-grad)" fill="none"><path d="M613.5137103891975 285.048971982347C619.5474649592945 361.06472029448173 599.1251665020119 409.5081086413934 518.0682531109223 492.51202101889726C437.0113397198329 575.5159333964011 289.4495740665192 716.5549932947138 224.44052611196724 683.467751394366C159.4314781574153 650.3805094940184 192.391195953413 444.5367545537863 206.02482292907223 333.6932598972287C219.65844990473153 222.84976524067116 230.9066422106759 194.3474834546763 289.8819355951307 151.4189770428893C348.85722897958556 108.49047063110237 421.6829447590251 99.79684684159685 489.1062311744556 127.63642912065052C556.5295175898863 155.47601139970413 607.4799558191004 209.0332236702124 613.5137103891975 285.048971982347C619.5474649592945 361.06472029448173 599.1251665020119 409.5081086413934 518.0682531109223 492.51202101889726 "></path><path d="M607.0435678979707 288.53241229928824C612.894481420489 362.24465308681283 593.0910404922149 409.2200599686664 514.4903972038858 489.7087022741248C435.8897539155565 570.1973445795832 292.79955691840377 706.9624935718863 229.7604801139898 674.8778953654885C166.72140330957575 642.7932971590908 198.68234177842203 443.18723176250205 211.90282854269765 335.70263088341596C225.12331530697332 228.21803000432982 236.03065330061634 200.57945372700146 293.2188165825119 158.95181114587467C350.4069798644075 117.32416856474794 421.0258557717427 108.89398792037895 486.4060122957967 135.88994649400672C551.7861688198507 162.88590506763455 601.1926543754521 214.82017151176376 607.0435678979707 288.53241229928824C612.894481420489 362.24465308681283 593.0910404922149 409.2200599686664 514.4903972038858 489.7087022741248 "></path><path d="M600.5734559243219 292.0157610634951C606.2415283992616 363.42449432640944 587.0569449999961 408.9319197432052 510.9125718144271 486.90529197661795C434.7681986288583 564.8786642100307 296.1495702878665 697.3699022963243 235.0804646335904 666.2879477838765C174.01135897931437 635.2059932714287 204.9735181210092 441.83761741848343 217.7808646739012 337.71191031686874C230.58821122679325 233.58620321525405 241.15469490813496 206.81133244659225 296.55572808747127 166.48455369612566C351.9567612668076 126.15777494565913 420.36879730203873 117.99103744642667 483.7058239347159 144.1433723146286C547.0428505673932 170.29570718283048 594.905383449382 220.60702780058068 600.5734559243219 292.0157610634951C606.2415283992616 363.42449432640944 587.0569449999961 408.9319197432052 510.9125718144271 486.90529197661795 "></path><path d="M594.1033744682513 295.4991098277019C599.5886058956123 364.60433556600617 581.0228800253553 408.64377951774395 507.3347769425467 484.1018816791111C433.64667385973803 559.5599838404784 299.4996141749073 687.7773110207626 240.4004796707692 657.6980002022647C181.3013451666311 627.6186893837668 211.26472498117448 440.4880030744648 223.65893132268286 339.7211897503216C236.0531376641913 238.95437642617833 246.27876703323165 213.04321116618303 299.89267011000874 174.01729624637665C353.5065731867859 134.99138132657032 419.71176934991263 127.0880869724744 481.00566609121324 152.39679813525044C542.2995628325139 177.70550929802653 588.6181430408901 226.39388408939766 594.1033744682513 295.4991098277019C599.5886058956123 364.60433556600617 581.0228800253553 408.64377951774395 507.3347769425467 484.1018816791111 "></path><path d="M587.6332319770244 298.9824738506977C592.9356223568068 365.78419206439185 574.9887540155582 408.35565455107167 503.75692103551 481.2984866403933C432.52508805546165 554.241318729715 302.8495970267919 678.1847350039897 245.72043367279173 649.1080678794417C188.59127031879154 620.0314007548938 217.55587080618346 439.13840398923526 229.53693693630828 341.73048444256347C241.5180030664331 244.32256489589162 251.40277812317208 219.27510514456287 303.22955109738996 181.5500540554167C355.05632407160783 143.82500296627057 419.0546803626304 136.1851517573112 478.3054472125543 160.65023921466138C537.5562140624781 185.11532667201158 582.3308415972419 232.1807556370037 587.6332319770244 298.9824738506977C592.9356223568068 365.78419206439185 574.9887540155582 408.35565455107167 503.75692103551 481.2984866403933 "></path><path d="M581.1631200033756 302.4658226149046C586.2826693355793 366.9640333039886 568.9546585233394 408.06751432561055 500.17909564605134 478.4950763428866C431.4035327687633 548.9226383601626 306.1996103962547 668.5921437284278 251.0404181923924 640.5181202978298C195.88122598853016 612.4440968672318 223.84704714877063 437.78878964521664 235.41497306751182 343.73976387601624C246.98289898625302 249.6907381068159 256.5268197306907 225.50698386415365 306.5664626023493 189.08279660566768C356.60610547400796 152.65860934718177 418.3976218929263 145.28220128335892 475.60525885147354 168.9036650352832C532.8128958100208 192.52512878720756 576.043570671172 237.96761192582062 581.1631200033756 302.4658226149046C586.2826693355793 366.9640333039886 568.9546585233394 408.06751432561055 500.17909564605134 478.4950763428866 "></path><path d="M574.6930080297269 305.9492018966895C579.6297163143518 368.1439050611633 562.9205630311205 407.7794046177273 496.6012702565928 475.69169656295776C430.28197748206503 543.6039885081883 309.5496237657174 658.999582970444 256.36040271199306 631.9282032337959C203.17118165826878 604.8568234971478 230.1382234913578 436.43920581877614 241.29300919871537 345.74907382704725C252.44779490607294 255.0589418353183 261.65086133820927 231.7388931013225 309.90337410730865 196.6155696734968C358.1558868764081 161.49224624567114 417.74056342322217 154.37928132698477 472.90507049039275 177.15712137348322C528.0695775575632 199.93496141998168 569.756299745102 243.75449873221567 574.6930080297269 305.9492018966895C579.6297163143518 368.1439050611633 562.9205630311205 407.7794046177273 496.6012702565928 475.69169656295776 "></path><path d="M568.2228960560782 309.4325506608963C572.9767632931243 369.3237463007599 556.8864675389017 407.4912643922661 493.02344486713423 472.8882862654509C429.16042219536666 538.2853081386359 312.8996371351801 649.4069916948822 261.6803872315937 623.338255652184C210.46113732800734 597.2695196094858 236.42939983394496 435.0895914747575 247.1710453299189 347.75835326050003C257.91269082589287 260.42711504624253 266.77490294572783 237.97077182091328 313.240285612268 204.14831222374778C359.70566827880816 170.32585262658233 417.08350495351806 163.4763308530325 470.20488212931184 185.4105471941051C523.3262593051056 207.34476353517766 563.4690288190319 249.54135502103264 568.2228960560782 309.4325506608963C572.9767632931243 369.3237463007599 556.8864675389017 407.4912643922661 493.02344486713423 472.8882862654509 "></path><path d="M561.7527840824293 312.91592994268126C566.323810271897 370.5036180579348 550.8523720466828 407.203154684383 489.44561947767556 470.0849064855223C428.0388669086684 532.9666582866616 316.24965050464283 639.8144309368984 267.0003717511944 614.7483385881501C217.75109299774596 589.6822462394019 242.72057617653212 433.74000764831703 253.04908146112246 349.76766321153104C263.3775867457128 265.79531877474494 271.89894455324645 244.2026810580822 316.57719711722734 211.6810852915769C361.25544968120823 179.15948952507165 416.42644648381395 172.57341089665834 467.50469376823105 193.66400353230506C518.5829410526483 214.75459616795177 557.1817578929619 255.32824182742775 561.7527840824293 312.91592994268126C566.323810271897 370.5036180579348 550.8523720466828 407.203154684383 489.44561947767556 470.0849064855223 "></path><path d="M555.2826721087806 316.3993092244662C559.6708572506695 371.6834898151096 544.8182765544639 406.91504497649987 485.867794088217 467.2815267055936C426.91731162197016 527.6480084346874 319.59966387410554 630.2218701789147 272.32035627079506 606.1584215241164C225.04104866748457 582.0949728693181 249.01175251911928 432.39042382187654 258.927117592326 351.77697316256194C268.8424826655327 271.16352250324735 277.022986160765 250.4345902952511 319.9141086221867 219.213858359406C362.80523108360836 187.99312642356097 415.76938801410984 181.6704909402842 464.80450540715026 201.91745987050507C513.8396228001907 222.1644288007259 550.8944869668919 261.1151286338228 555.2826721087806 316.3993092244662C559.6708572506695 371.6834898151096 544.8182765544639 406.91504497649987 485.867794088217 467.2815267055936 "></path><path d="M548.8125601351319 319.88265798867303C553.0179042294421 372.86333105470624 538.784181062245 406.62690475103864 482.28996869875846 464.47811640808675C425.7957563352718 522.3293280651349 322.9496772435683 620.6292789033528 277.6403407903957 597.5684739425044C232.33100433722313 574.507668981656 255.3029288617064 431.0408094778579 264.80515372352954 353.7862525960147C274.30737858535264 276.53169571417163 282.1470277682836 256.6664690148419 323.25102012714603 226.746600909657C364.3550124860085 196.82673280447216 415.1123295444057 190.76754046633192 462.10431704606947 210.1708856911269C509.0963045477332 229.57423091592187 544.6072160408219 266.90198492263977 548.8125601351319 319.88265798867303C553.0179042294421 372.86333105470624 538.784181062245 406.62690475103864 482.28996869875846 464.47811640808675 "></path><path d="M542.3424634202722 323.36602201166886C546.3649664670037 374.0431875530919 532.7501008288152 406.33877978436635 478.71215856808885 461.67472136936897C424.6742163073626 517.0106629543716 326.29970587182004 611.03670288658 282.96034056878545 588.9785416196816C239.62097526575081 566.920380352783 261.5941204630826 429.69121039262836 270.68320511352215 355.79554728825667C279.7722897639616 281.8998841838849 287.27108463459126 262.8983629932217 326.58794689089444 234.27935871869704C365.9048091471976 205.6603544441724 414.4552863334907 199.8646052511687 459.40414394377774 218.42432677053785C504.3530015540648 236.98404828990692 538.3199603735409 272.68885647024575 542.3424634202722 323.36602201166886C546.3649664670037 374.0431875530919 532.7501008288152 406.33877978436635 478.71215856808885 461.67472136936897 "></path><path d="M535.8723514466235 326.84938603466475C539.7120134457762 375.2230440514777 526.7160053365964 406.0506548176942 475.1343331786303 458.8713263306513C423.55266102066423 511.6919978436083 329.6497192412828 601.4441268698072 288.2803250883861 580.3886092968587C246.91093093548943 559.3330917239101 267.8852968056698 428.3416113073988 276.5612412447257 357.8048419804985C285.23718568378155 287.26807265359827 292.3951262421098 269.1302569716015 329.9248583958538 241.8121165277371C367.45459054959775 214.49397608387267 413.79822786378656 208.9616700360055 456.70395558269695 226.67776784994874C499.60968330160733 244.39386566389197 532.0326894474708 278.4757280178518 535.8723514466235 326.84938603466475C539.7120134457762 375.2230440514777 526.7160053365964 406.0506548176942 475.1343331786303 458.8713263306513 "></path><path d="M529.4022242141857 330.33273479887157C533.0590451657597 376.4028852910744 520.6818945855885 405.76251459223295 471.5564925303827 456.06791603314446C422.4310904751769 506.37331747405585 332.99971735195646 591.8515355942453 293.6002943491977 571.7986617152467C254.20087134643893 551.7457878362482 274.1764578894679 426.9919969633802 282.4392621171402 359.8141214139514C290.7020663448124 292.6362458645225 297.5191525908393 275.3621356911923 333.2617546420241 249.34485907798808C369.0043566932088 223.32758246478386 413.14115413529333 218.05871956205323 454.0037519628271 234.93119367057062C494.8663497903608 251.80366777908796 525.7454032626117 284.26258430666877 529.4022242141857 330.33273479887157C533.0590451657597 376.4028852910744 520.6818945855885 405.76251459223295 471.5564925303827 456.06791603314446 "></path><path d="M522.932112240537 333.81608356307834C526.4060921445323 377.58272653067104 514.6477990933695 405.4743743667717 467.978667140924 453.2645057356376C421.3095351884786 501.0546371045034 336.3497307214192 582.2589443186835 298.9202788687984 563.2087141336347C261.49082701617755 544.1584839485861 280.46763423205505 425.64238261936157 288.31729824834366 361.8234008474042C296.16696226463233 298.0044190754468 302.6431941983579 281.5940144107831 336.5986661469834 256.87760162823906C370.5541380956089 232.16118884569505 412.4840956655893 227.15576908810095 451.3035636017462 243.18461949119245C490.1230315379032 259.21346989428395 519.4581323365417 290.0494405954857 522.932112240537 333.81608356307834C526.4060921445323 377.58272653067104 514.6477990933695 405.4743743667717 467.978667140924 453.2645057356376 "></path><path d="M516.4620155256773 337.29946284486334C519.753154382094 378.76259828784583 508.6137188599397 405.1862646588886 464.4008570102545 450.4611259557089C420.18799516056936 495.7359872525292 339.69975934967096 572.6663835606996 304.24027864718806 554.618797069601C268.7807979447052 536.5712105785021 286.7588258334312 424.2927987929211 294.19534963833627 363.83271079843513C301.6318734432413 303.3726228039492 307.7672510646656 287.825923647952 339.9355929107318 264.4103746960682C372.1039347567981 240.99482574418437 411.8270524546742 236.2528491317268 448.60339049945446 251.43807582939246C485.3797285442348 266.6233025270581 513.1708766692607 295.8363274018808 516.4620155256773 337.29946284486334C519.753154382094 378.76259828784583 508.6137188599397 405.1862646588886 464.4008570102545 450.4611259557089 "></path><path d="M509.9919035520286 340.78284212664823C513.1002013608664 379.9424700450206 502.57962336772084 404.8981549510054 460.823031620796 447.6577461757802C419.0664398738711 490.41733740055497 343.04977271913367 563.073822802716 309.56026316678873 546.0288800055671C276.0707536144438 528.9839372084184 293.0500021760184 422.9432149664806 300.0733857695398 365.8420207494661C307.09676936306124 308.7408265324516 312.89129267218414 294.0578328851209 343.2725044156912 271.9431477638973C373.6537161591982 249.82846264267368 411.16999398497006 245.34992917535266 445.9032021383737 259.69153216759247C480.63641029177734 274.0331351598322 506.8836057431906 301.62321420827584 509.9919035520286 340.78284212664823C513.1002013608664 379.9424700450206 502.57962336772084 404.8981549510054 460.823031620796 447.6577461757802 "></path><path d="M503.5217763195908 344.26619089085506C506.44723308084997 381.12231128461735 496.5455126167129 404.61001472554415 457.24519097254836 444.85433587827333C417.94486932838373 485.0986570310025 346.3997708298074 553.481231527154 314.88023242760033 537.4389324239552C283.36069402539334 521.3966333207563 299.3411632598165 421.59360062246196 305.9514066419543 367.8513001829189C312.5616500240921 314.1089997433758 318.01531902091364 300.28971160471167 346.60940066186146 279.4758903141483C375.2034823028092 258.66206902358493 410.51292025647683 254.44697870140038 443.2029985185038 267.9449579882143C475.8930767805308 281.4429372750282 500.5963195583315 307.4100704970928 503.5217763195908 344.26619089085506C506.44723308084997 381.12231128461735 496.5455126167129 404.61001472554415 457.24519097254836 444.85433587827333 "></path><path d="M497.05167960473113 347.7495396550619C499.7942953184116 382.302152524214 490.51143238328314 404.3218745000829 453.66738084187887 442.0509255807665C416.8233293004745 479.77997666145006 349.74979945805916 543.8886402515923 320.20023220599006 528.8489848423433C290.650664953921 513.8093294330943 305.6323548611927 420.24398627844334 311.8294580319469 369.86057961637175C318.0265612027011 319.4771729543001 323.1393758872213 306.52159032430245 349.94632742560987 287.00863286439926C376.7532789639984 267.4956754044961 409.8558770455618 263.5440282274481 440.5028254162121 276.1983838088362C471.1497737868624 288.8527393902242 494.3090638910505 313.1969267859098 497.05167960473113 347.7495396550619C499.7942953184116 382.302152524214 490.51143238328314 404.3218745000829 453.66738084187887 442.0509255807665 "></path><path d="M490.5815676310824 351.2329341956359C493.1413422971841 383.4820395401779 484.47733689106417 404.03378005098887 450.0895554524202 439.24756105962683C415.7017740137762 474.4613420682649 353.0998128275219 534.2960947523975 325.5202167255907 520.2590830370984C297.9406206236596 506.2220713217995 311.9235312037799 418.8944177107919 317.70749416315044 371.8699048261917C323.491457122521 324.8453919415916 328.2634174947399 312.7535148202604 353.2832389305692 294.54142119101743C378.30306036639854 276.3293275617745 409.1988185758577 272.6411235298631 437.8026370551313 284.4518554058252C466.4064555344049 296.2625872817874 488.0217929649805 318.9838288510939 490.5815676310824 351.2329341956359C493.1413422971841 383.4820395401779 484.47733689106417 404.03378005098887 450.0895554524202 439.24756105962683 "></path><path d="M484.1114403986446 354.71626770105365C486.48837401716764 384.66186552098543 478.44322614005637 403.7456245667385 446.5117148041726 436.4441355033309C414.5802034682888 469.1426464399234 356.4498109381955 524.7034882180466 330.84018598640233 511.66912019669746C305.23056103460914 498.63475217534835 318.2146922875779 417.54478810798423 323.5855150355649 373.8791690008555C328.95633778355193 330.21354989372674 333.3874438434694 318.98537828106214 356.6201351767395 302.07414848247936C379.85282651000955 285.16291868389663 408.5417448473645 281.73815779712174 435.1024334352614 292.705265967658C461.6631220231583 303.6723741381943 481.73450678012136 324.77066988112176 484.1114403986446 354.71626770105365C486.48837401716764 384.66186552098543 478.44322614005637 403.7456245667385 446.5117148041726 436.4441355033309 "></path><path d="M477.64134368378484 358.19964698283854C479.8354362547293 385.8417372781603 472.40914590662646 403.4575148588554 442.93390467350304 433.64075572340226C413.4586634403796 463.8239965879492 359.7998395664473 515.1109274600628 336.16018576479206 503.0792031326637C312.5205319631368 491.0474788052645 324.50588388895414 416.19520428154374 329.46356642555753 375.88847895188644C334.4212489621609 335.58175362222914 338.511500709777 325.21728751823105 359.95706194048785 309.60692155030847C381.40262317119874 293.99655558238595 407.88470163644945 290.8352378407476 432.40226033296966 300.958722305858C456.9198190294899 311.0822067709684 475.4472511128405 330.55755668751686 477.64134368378484 358.19964698283854C479.8354362547293 385.8417372781603 472.40914590662646 403.4575148588554 442.93390467350304 433.64075572340226 "></path><path d="M471.1712317101361 361.68299574704537C473.18248323350184 387.0215785177569 466.3750504144076 403.1693746333941 439.3560792840444 430.8373454258954C412.3371081536813 458.50531621839673 363.14985293591 505.51833618450087 341.4801702843927 494.48925555105166C319.81048763287544 483.46017491760244 330.7970602315413 414.8455899375251 335.3416025567611 377.8977583853393C339.88614488198084 340.9499268331534 343.63554231729563 331.44916623782177 363.29397344544725 317.13966410055946C382.9524045735988 302.83016196329714 407.22764316674534 299.9322873667953 429.70207197188887 309.21214812647986C452.1765007770324 318.4920088861644 469.15998018677044 336.34441297633384 471.1712317101361 361.68299574704537C473.18248323350184 387.0215785177569 466.3750504144076 403.1693746333941 439.3560792840444 430.8373454258954 "></path><path d="M464.7011197364874 365.1663445112522C466.5295302122744 388.2014197573536 460.34095492218876 402.8812344079329 435.7782538945859 428.03393512838863C411.215552866983 453.18663584884433 366.49986630537273 495.9257449089391 346.8001548039934 485.89930796943975C327.100443302614 475.8728710299405 337.0882365741285 413.4959755935065 341.2196386879646 379.9070378187921C345.35104080180076 346.31810004407765 348.7595839248142 337.68104495741255 366.63088495040654 324.67240665081044C384.50218597599894 311.66376834420834 406.5705846970412 309.02933689284305 427.0018836108081 317.4655739471017C447.43318252457493 325.9018110013604 462.8727092607004 342.13126926515076 464.7011197364874 365.1663445112522C466.5295302122744 388.2014197573536 460.34095492218876 402.8812344079329 435.7782538945859 428.03393512838863 "></path><path d="M458.2309925040496 368.64972379303714C459.8765619322579 389.38129151452836 454.3068441711808 402.59312470004977 432.2004132463382 425.2305553484599C410.0939823214956 447.86798599687006 369.84986441604644 486.3331841509553 352.120124064805 477.30939090540596C334.39038371356355 468.28559765985653 343.3793976579266 412.146391767066 347.0976595603791 381.916347769823C350.8159214628316 351.68630377258006 353.8836102735437 343.91295419458146 369.9677811965768 332.20517971863956C386.05195211960995 320.49740524269765 405.91351096854805 318.1264169364689 424.30167999093817 325.7190302853017C442.68984901332834 333.3116436341345 456.5854230758413 347.91815607154587 458.2309925040496 368.64972379303714C459.8765619322579 389.38129151452836 454.3068441711808 402.59312470004977 432.2004132463382 425.2305553484599 "></path><path d="M451.76089578918993 372.1331030748221C453.2236241698195 390.5611632717032 448.272763937751 402.3050149921666 428.6226031156687 422.4271755685312C408.97244229358637 442.5493361448958 373.1998930442982 476.74062339297154 357.4401238431947 468.7194738413721C341.68035464209123 460.6983242897727 349.6705892593028 410.7968079406255 352.9757109503717 383.925657720854C356.2808326414406 357.05450750108247 359.0076671398514 350.14486343175037 373.30470796032523 339.73795278646867C387.60174878079914 329.33104214118697 405.25646775763295 327.22349698009475 421.60150688864644 333.9724866235017C437.94654601965993 340.7214762669086 450.2981674085603 353.7050428779409 451.76089578918993 372.1331030748221C453.2236241698195 390.5611632717032 448.272763937751 402.3050149921666 428.6226031156687 422.4271755685312 "></path><path d="M445.2907838155412 375.61645183902885C446.57067114859206 391.7410045112999 442.2386684455321 402.01687476670537 425.0447777262101 419.62376527102435C407.8508870068881 437.2306557753434 376.54990641376094 467.1480321174097 362.7601083627954 460.12952625976015C348.9703103118298 453.1110204021107 355.9617656018899 409.4471935966069 358.85374708157525 385.9349371543068C361.74572856126053 362.4226807120067 364.13170874736994 356.37674215134115 376.6416194652846 347.27069533671965C389.15153018319927 338.16464852209816 404.59940928792884 336.3205465061425 418.90131852756565 342.22591244412354C433.20322776720246 348.1312783821046 444.01089648249024 359.4918991667579 445.2907838155412 375.61645183902885C446.57067114859206 391.7410045112999 442.2386684455321 402.01687476670537 425.0447777262101 419.62376527102435 "></path><path d="M438.8206718418924 379.0998311208138C439.91771812736465 392.9208762684747 436.20457295331323 401.7287650588222 421.46695233675155 416.82038549109564C406.7293317201898 431.9120059233691 379.89991978322365 457.55547135942595 368.080092882396 451.53960919572637C356.2602659815684 445.5237470320268 362.2529419444771 408.0976097701664 364.73178321277874 387.94424710533775C367.21062448108046 367.7908844405091 369.2557503548885 362.60865138851005 379.9785309702439 354.80346840454877C390.70131158559934 346.9982854205875 403.9423508182247 345.41762654976833 416.20113016648486 350.47936878232355C428.45990951474494 355.54111101487877 437.72362555642025 365.278785973153 438.8206718418924 379.0998311208138C439.91771812736465 392.9208762684747 436.20457295331323 401.7287650588222 421.46695233675155 416.82038549109564 "></path><path d="M432.3505598682437 382.5831798850206C433.2647651061372 394.10071750807134 430.1704774610944 401.44062483336097 417.88912694729294 414.01697519358885C405.6077764334915 426.5933255538167 383.24993315268637 447.9628800838641 373.40007740199667 442.9496616141144C363.550221651307 437.9364431443648 368.54411828706424 406.7479954261478 370.6098193439823 389.9535265387906C372.6755204009004 373.1590576514334 374.3797919624071 368.84053010810084 383.31544247520327 362.33621095479975C392.25109298799947 355.8318918014987 403.2852923485206 354.51467607581606 413.500941805404 358.7327946029454C423.71659126228747 362.95091313007475 431.4363546303502 371.0656422619699 432.3505598682437 382.5831798850206C433.2647651061372 394.10071750807134 430.1704774610944 401.44062483336097 417.88912694729294 414.01697519358885 "></path><path d="M425.88044789459497 386.0665439080165C426.61181208490973 395.2805740064571 424.13638196887547 401.1524998666888 414.3113015578343 411.21358015487107C404.4862211467932 421.27466044305334 386.5999465221491 438.37030406709124 378.72006192159733 434.3597292912915C370.8401773210456 430.3491545154918 374.8352946296514 405.3983963409182 376.4878554751858 391.9628212310325C378.1404163207203 378.5272461211467 379.5038335699257 375.0724240864806 386.6523539801626 369.8689687638398C393.8008743903996 364.665513441199 402.6282338788165 363.61174086065284 410.8007534443232 366.9862356823563C418.97327300983 370.3607305040598 425.14908370428014 376.85251380957595 425.88044789459497 386.0665439080165C426.61181208490973 395.2805740064571 424.13638196887547 401.1524998666888 414.3113015578343 411.21358015487107 "></path><path d="M419.41033592094624 389.5499079310124C419.9588590636823 396.4604305048428 418.1022864766566 400.86437490001657 410.7334761683758 408.4101851161533C403.3646658600949 415.95599533229 389.94995989161185 428.77772805031844 384.040046441198 425.76979696846865C378.1301329907842 422.76186588661886 381.12647097223856 404.04879725568867 382.36589160638937 393.9721159232744C383.60531224054023 383.89543459086 384.62787517744425 381.30431806486047 389.98926548512196 377.40172657287985C395.35065579279967 373.49913508089924 401.97117540911233 372.70880564548963 408.10056508324243 375.2396767617672C414.22995475737247 377.77054787804485 418.8618127782101 382.63938535718194 419.41033592094624 389.5499079310124C419.9588590636823 396.4604305048428 418.1022864766566 400.86437490001657 410.7334761683758 408.4101851161533 "></path><path d="M412.94022394729745 393.0332719540082C413.30590604245486 397.64028700322854 412.06819098443776 400.5762499333444 407.15565077891716 405.60679007743556C402.2431105733966 410.63733022152667 393.29997326107457 419.18515203354565 389.36003096079867 417.17986464564575C385.4200886605228 415.1745772577459 387.4176473148257 402.6991981704591 388.2439277375929 395.9814106155162C389.07020816036015 389.26362306057337 389.7519167849628 387.5362120432403 393.3261769900813 384.9344843819199C396.9004371951998 382.3327567205995 401.3141169394082 381.8058704303264 405.40037672216164 383.49311784117816C409.486636504915 385.1803652520299 412.5745418521401 388.426256904788 412.94022394729745 393.0332719540082C413.30590604245486 397.64028700322854 412.06819098443776 400.5762499333444 407.15565077891716 405.60679007743556 "></path><path d="M406.4701119736487 396.5166359770041C406.65295302122746 398.82014350161427 406.03409549221885 400.28812496667217 403.5778253894586 402.8033950387178C401.1215552866983 405.31866511076333 396.6499866305373 409.5925760167728 394.68001548039933 408.5899323228229C392.7100443302614 407.58728862887295 393.70882365741284 401.34959908522956 394.12196386879646 397.9907053077581C394.5351040801801 394.63181153028665 394.87595839248144 393.76810602162016 396.66308849504065 392.46724219095995C398.45021859759987 391.16637836029975 400.6570584697041 390.9029352151632 402.7001883610808 391.74655892058905C404.74331825245747 392.59018262601495 406.28727092607005 394.21312845239396 406.4701119736487 396.5166359770041C406.65295302122746 398.82014350161427 406.03409549221885 400.28812496667217 403.5778253894586 402.8033950387178 "></path></g></svg>