<svg xmlns="http://www.w3.org/2000/svg" version="1.1" xmlns:xlink="http://www.w3.org/1999/xlink" xmlns:svgjs="http://svgjs.dev/svgjs" viewBox="0 0 800 800" opacity="0.3"><defs><linearGradient x1="50%" y1="0%" x2="50%" y2="100%" id="uundulate-grad"><stop stop-color="hsl(182, 25%, 50%)" stop-opacity="1" offset="45%"></stop><stop stop-color="hsl(209, 66%, 34%)" stop-opacity="1" offset="100%"></stop></linearGradient></defs><g stroke-width="1" stroke="url(#uundulate-grad)" fill="none"><path d="M500.4072463320233 334.0221811163684C537.1985614847271 413.88439680944236 584.2107564615972 547.7908954579466 564.237360306813 586.9566590476202C544.2639641520288 626.1224226372938 473.59217953797224 538.6099316566728 404.5349447890587 522.0178463468018C335.4777100401454 505.4257610369309 247.62121849372653 539.5679004640758 232.76263351202834 507.3146495602398C217.90404853033016 475.06139865640375 300.9478172806974 430.47237239159233 333.21373687690703 367.20224200838936C365.47965647311673 303.93211162518634 352.8070664373523 210.53053640670288 387.6390475738349 203.61802372086527C422.47102871031757 196.70551103502765 463.61593117931955 254.15996542329452 500.4072463320233 334.0221811163684C537.1985614847271 413.88439680944236 584.2107564615972 547.7908954579466 564.237360306813 586.9566590476202 "></path><path d="M496.54542740477746 336.55976312552707C531.921691974685 413.35035513809817 577.1257256062909 542.1066038385829 557.9205369959215 579.7659919055768C538.715348385552 617.4253799725707 470.7617093335746 533.2787540296658 404.3605220750039 517.3248258470976C337.95933481643334 501.37089766452937 253.48193909872293 534.1998778829379 239.19483815478236 503.1871366292495C224.90773721084184 472.17439537556106 304.75751485542565 429.3003316593962 335.7824375440888 368.46366782939333C366.80736023275193 307.6270039993904 354.62217750605544 217.81779705854092 388.11446706036566 211.17115024523554C421.60675661467576 204.52450343193016 461.1691628348701 259.769171112956 496.54542740477746 336.55976312552707C531.921691974685 413.35035513809817 577.1257256062909 542.1066038385829 557.9205369959215 579.7659919055768 "></path><path d="M492.68363899510985 339.09740616984186C526.644852982221 412.8163745019101 570.0407252685627 536.4223732543755 551.603744202608 572.5753857986897C533.1667631366533 608.7283983430037 467.931269646755 527.947637437815 404.18612987852725 512.6318663825496C340.4409901102995 497.3160953272841 259.34269022129746 528.8319163369563 245.6270733151145 499.05968473341545C231.9114564089316 469.2874531298745 308.5672429477321 428.1283519623562 338.3511687288487 369.7251546855535C368.13509450996526 311.32195740875073 356.4373190923367 225.1051187455352 388.58991706447443 218.72433780476206C420.7425150366122 212.3435568639889 458.7224250079987 265.3784378377737 492.68363899510985 339.09740616984186C526.644852982221 412.8163745019101 570.0407252685627 536.4223732543755 551.603744202608 572.5753857986897 "></path><path d="M488.8218200678641 341.6349881790005C521.3679834721789 412.2823328305659 562.9556944132564 530.7380816350119 545.2869208917165 565.3847186566462C527.6181473701766 600.0313556782805 465.10079944235736 522.6164598108081 404.01170716447234 507.9388458828454C342.92261488658744 493.26123195488265 265.20341082629386 523.4638937558186 252.05927795786852 494.93217180242505C238.91514508944323 466.4004498490317 312.37694052246036 426.95631123016005 340.91986939603044 370.9865805065574C369.4627982696005 315.01684978295475 358.2524301610398 232.3923793973733 389.0653365510051 226.27746432913233C419.8782429409705 220.16254926089135 456.2756566635493 270.9876435274351 488.8218200678641 341.6349881790005C521.3679834721789 412.2823328305659 562.9556944132564 530.7380816350119 545.2869208917165 565.3847186566462 "></path><path d="M484.96000114061826 344.17260070573724C516.0911139621369 411.74832167679983 555.87066355795 525.0538205332264 538.9700975808249 558.1940820321811C522.0695316036998 591.3343435311356 462.2703292379597 517.2853127013793 403.83728445041754 503.24585590071933C345.4042396628754 489.20639910005934 271.06413143129026 518.0959016922588 258.49148260062253 490.804689389013C245.91883376995486 463.51347708576714 316.1866380971886 425.78430101554204 343.4885700632122 372.2480368451395C370.79050202923577 318.71177267473695 360.06754122974286 239.67967056678947 389.5407560375358 233.83062137108072C419.01397084532874 227.98157217537198 453.82888831909975 276.5968797346747 484.96000114061826 344.17260070573724C516.0911139621369 411.74832167679983 555.87066355795 525.0538205332264 538.9700975808249 558.1940820321811 "></path><path d="M481.0981822133725 346.71021323247396C510.8142444520947 411.21431052303365 548.7856327026436 519.3695594314408 532.6532742699335 551.0034454077157C516.5209158372231 582.6373313839906 459.439859033562 511.9541655919504 403.6628617363627 498.55286591859317C347.88586443916336 485.1515662452359 276.92485203628667 512.7279096286991 264.92368724337655 486.6772069756008C252.9225224504665 460.62650432250246 319.99633567191694 424.61229080092403 346.05727073039395 373.5094931837216C372.118205788871 322.40669556651915 361.882652298446 246.96696173620563 390.0161755240665 241.38377841302912C418.149698749687 235.8005950898526 451.3821199746502 282.2061159419143 481.0981822133725 346.71021323247396C510.8142444520947 411.21431052303365 548.7856327026436 519.3695594314408 532.6532742699335 551.0034454077157 "></path><path d="M477.23633276854855 349.2478257592107C505.53734442447455 410.6802993692675 541.7005713297592 513.6852983296553 526.3364204414637 543.8128087832505C510.9722695531682 573.9403192368455 456.6093583115862 506.62301848252173 403.4884085047297 493.8598759364671C350.36745869787325 481.0967333904125 282.7855421237049 507.3599175651394 271.35586136855244 482.54972456218866C259.9261806134 457.7395315592378 323.8060027290671 423.440280586306 348.6259408799976 374.7709495223037C373.4458790309281 326.10161845830135 363.6977328495709 254.2542529056218 390.49156449301904 248.93693545497752C417.28539613646717 243.61961800433318 448.93532111262266 287.81535214915385 477.23633276854855 349.2478257592107C505.53734442447455 410.6802993692675 541.7005713297592 513.6852983296553 526.3364204414637 543.8128087832505 "></path><path d="M473.37454435888094 351.7854382859474C500.26050543201063 410.14628821550144 534.615570992031 508.0010372278698 520.0196276481503 536.6221721587851C505.4236843042695 565.2433070897005 453.7789186247667 501.2918713730928 403.314016308253 489.16688595434096C352.84911399173933 477.0419005355892 288.6462932462794 501.99192550157966 277.7880965288846 478.4222421487765C266.9298998114898 454.8525587959732 327.6157308213735 422.2682703716879 351.19467206475747 376.0324058608858C374.7736133081415 329.79654135008354 365.51287443585215 261.54154407503796 390.9670144971279 256.4900924969259C416.4211545584036 251.4386409188138 446.48858328575125 293.42458835639343 473.37454435888094 351.7854382859474C500.26050543201063 410.14628821550144 534.615570992031 508.0010372278698 520.0196276481503 536.6221721587851 "></path><path d="M469.51274069042415 354.3230508126842C494.98365118075753 409.6122770617353 527.5305553955138 502.3167761260844 513.7028195960479 529.43153553432C499.87508379658186 556.5462949425555 450.94846367915807 495.960724263664 403.1396088529872 484.4738959722149C355.3307540268164 472.9870676807659 294.5070291100649 496.62393343802 284.2203164304277 474.2947597353643C273.9336037507905 451.96558603270864 331.42544365489084 421.09626015706993 353.7633879907283 377.29386219946787C376.10133232656574 333.49146424186574 367.32800076334433 268.8288352444542 391.4424492424476 264.0432495388743C415.55689772155097 259.25766383329443 444.0418302000909 299.033824563633 469.51274069042415 354.3230508126842C494.98365118075753 409.6122770617353 527.5305553955138 502.3167761260844 513.7028195960479 529.43153553432 "></path><path d="M465.65090650438935 356.8606328218428C489.7067664119264 409.0782353903911 520.4455092814185 496.63248450672074 507.3859810263673 522.2408683922765C494.326452771316 547.8492522778324 448.11797821597133 490.6295466366571 402.9651708801433 479.78087547251073C357.8123635443153 468.93220430836436 300.3677344562722 491.2559108568822 290.65250581439267 470.16724680437403C280.93727717251306 449.07858275186584 335.2351259708301 419.92421942487374 356.332073399121 378.55528802047183C377.42902082741193 337.1863566160698 369.14309657325833 276.1160958962922 391.91785347018924 271.5963760632445C414.69261036712015 267.0766562301969 441.5950465968523 304.64303025329446 465.65090650438935 356.8606328218428C489.7067664119264 409.0782353903911 520.4455092814185 496.63248450672074 507.3859810263673 522.2408683922765 "></path><path d="M461.7891028359326 359.39826060736857C484.42991216067344 408.54423949541405 513.3604936849011 490.9482386637243 501.0691729742647 515.0502470266003C488.77785226362835 539.1522553894765 445.2875232703627 485.29841478601736 402.7907634248775 475.08790074917374C360.2940035793923 464.87738671233 306.2284703200577 485.8879340521115 297.08472571593575 466.0397796497509C287.94098111181376 446.1916252473903 339.0448388043474 418.7522244690448 358.9007893250918 379.81675961784293C378.75673984583625 340.8812947666411 370.95822290075046 283.40340232449745 392.393288215509 279.149548363982C413.82835353026746 274.89569440346656 439.14829351119187 310.2522817193231 461.7891028359326 359.39826060736857C484.42991216067344 408.54423949541405 513.3604936849011 490.9482386637243 501.0691729742647 515.0502470266003 "></path><path d="M457.92726864989777 361.93585787531623C479.1530273918422 408.01021308285885 506.2754475708058 485.2639623031498 494.7523344045842 507.85959514334604C483.22922123836247 530.4552279835424 442.45703780717594 479.9672524177995 402.6163254520336 470.3948955082585C362.7756130968913 460.82253859871764 312.089175666265 480.5199267297628 303.5169150999007 461.9122819775497C294.9446545335363 443.3046372253366 342.8545211202866 417.5801989956377 361.4694747334845 381.07820069763596C380.08442834668244 344.5762023996342 372.7733187106645 290.69067823512455 392.8686924432506 286.7026901471413C412.9640661758367 282.71470205915807 436.7015099079533 315.8615026677736 457.92726864989777 361.93585787531623C479.1530273918422 408.01021308285885 506.2754475708058 485.2639623031498 494.7523344045842 507.85959514334604 "></path><path d="M454.0654649814411 364.47347040205295C473.87617314058923 407.4762019290927 499.19043197428846 479.5797012013643 488.4355263524817 500.6689585188808C477.6806207306747 521.7582158363973 439.6265828615674 474.6361053083706 402.4419179967678 465.70190552613246C365.2572531319683 456.7677057438942 317.9499115300505 475.15193466620303 309.9491350014438 457.78479956413753C301.94835847283707 440.4176644620719 346.664233953804 416.40818878101965 364.0381906594554 382.339657036218C381.4121473651067 348.2711252914164 374.5884450381567 297.9779694045407 393.3441271885704 294.2558471890897C412.0998093389841 290.5337249736387 434.25475682229285 321.4707388750131 454.0654649814411 364.47347040205295C473.87617314058923 407.4762019290927 499.19043197428846 479.5797012013643 488.4355263524817 500.6689585188808 "></path><path d="M450.2036307954062 367.0110829287897C468.59928837175806 406.94219077532665 492.1053858601931 473.89544009957876 482.11868778280103 493.47832189441556C472.13198970540896 513.0612036892524 436.79609739838065 469.30495819894185 402.2674800239239 461.00891554400636C367.7388626494672 452.7128728890709 323.8106168762578 469.7839426026434 316.38132438540873 453.65731715072536C308.95203189455964 437.53069169880735 350.4739162697432 415.23617856640163 366.606876067848 383.60111337480015C382.7398358659529 351.9660481831986 376.4035408480707 305.2652605739569 393.819531416312 301.8090042310381C411.2355219845533 298.3527478881193 431.8079732190543 327.0799750822527 450.2036307954062 367.0110829287897C468.59928837175806 406.94219077532665 492.1053858601931 473.89544009957876 482.11868778280103 493.47832189441556 "></path><path d="M446.34182712694945 369.5486954555264C463.322434120505 406.4081796215605 485.0203702636759 468.21117899779324 475.80187973069854 486.2876852699503C466.5833891977212 504.3641915421074 433.96564245277204 463.973811089513 402.09307256865816 456.31592556188025C370.2205026845443 448.6580400342475 329.67135274004323 464.4159505390836 322.8135442869518 449.5298347373132C315.95573583386033 434.6437189355427 354.2836291032606 414.06416835178356 369.1755919938189 384.8625697133822C384.06755488437716 355.6609710749808 378.21866717556287 312.5525517433731 394.29496616163175 309.3621612729865C410.3712651477006 306.1717708025999 429.3612201333939 332.6892112894923 446.34182712694945 369.5486954555264C463.322434120505 406.4081796215605 485.0203702636759 468.21117899779324 475.80187973069854 486.2876852699503 "></path><path d="M442.4799929409146 372.0862927234741C458.0455493516739 405.8741532090054 477.9353241495805 462.52690263721865 469.48504116101793 479.097033386696C461.0347581724554 495.66716413617326 431.1351569895853 458.64264872129513 401.91863459581424 451.62292032096514C372.70211220204317 444.60319192063514 335.5320580862506 459.0479432167349 329.24573367091676 445.40233706511196C322.9594092555829 431.75673091348904 358.0933114191998 412.8921428783765 371.74427740221154 386.1240107931752C385.39524338522335 359.35587870797394 380.03376298547687 319.8398276540002 394.7703703893734 316.91530305614583C409.5069777932698 313.99077845829146 426.91443653015534 338.2984322379428 442.4799929409146 372.0862927234741C458.0455493516739 405.8741532090054 477.9353241495805 462.52690263721865 469.48504116101793 479.097033386696 "></path><path d="M438.6181740136688 374.6239052502108C452.7686798416318 405.3401420552392 470.85029329427414 456.84264153543313 463.1682178501264 471.9063967622307C455.4861424059786 486.97015198902824 428.30468678518764 453.31150161186633 401.7442118817594 446.92993033883903C375.1837369783311 440.5483590658117 341.392778691247 453.6799511531752 335.6779383136708 441.2748546516998C329.9630979360945 428.86975815022436 361.9030089939281 411.7201326637585 374.31297806939335 387.3854671317573C386.7229471448586 363.05080159975614 381.84887405418 327.12711882341637 395.24578987590405 324.4684600980942C408.6427056976281 321.8098013727721 424.46766818570586 343.90766844518237 438.6181740136688 374.6239052502108C452.7686798416318 405.3401420552392 470.85029329427414 456.84264153543313 463.1682178501264 471.9063967622307 "></path><path d="M434.756355086423 377.1615330357366C447.4918103315897 404.8061461602622 463.76526243896785 451.1583956924367 456.8513945392349 464.71577539655453C449.93752663950187 478.2731551006723 425.47421658078997 447.98036976122654 401.5697891677045 442.236955615502C377.66536175461914 436.4935414697775 347.2534992962434 448.31197434840453 342.1101429564248 437.1473874970767C336.96678661660616 425.98280064574885 365.71270656865636 410.5481377079295 376.8816787365751 388.64693872912846C388.0506509044938 366.7457397503274 383.6639851228831 334.4144252516216 395.72120936243476 332.0216323988317C407.7784336019864 329.6288395460417 422.0208998412564 349.516919911211 434.756355086423 377.1615330357366C447.4918103315897 404.8061461602622 463.76526243896785 451.1583956924367 456.8513945392349 464.71577539655453 "></path><path d="M430.89455141796634 379.6991303036843C442.2149560803367 404.27211974770705 456.6802468424506 445.47411933186214 450.53458648713234 457.5251235133002C444.3889261318142 469.57612769473826 422.64376163518136 442.6492073930087 401.39538171243873 437.54395037458687C380.14700178969616 432.438693356165 353.11423516002884 442.94396702605576 348.5423628579679 433.01988982487546C343.9704905559069 423.0958126236951 369.5224194021737 409.3761122345224 379.45039466254593 389.9083798089215C389.3783699229181 370.44064738332054 385.4791114503752 341.7017011622487 396.1966441077545 339.574774181991C406.91417676513373 337.4478472017333 419.57414675559596 355.1261408596615 430.89455141796634 379.6991303036843C442.2149560803367 404.27211974770705 456.6802468424506 445.47411933186214 450.53458648713234 457.5251235133002 "></path><path d="M427.0327172319315 382.236742830421C436.93807131150555 403.7381085939409 449.59520072835517 439.7898582300767 444.2177479174518 450.33448688883493C438.8402951065483 460.8791155475932 419.81327617199463 437.3180602835798 401.2209437395949 432.85096039246076C382.6286113071951 428.38386050134164 358.9749405062362 437.57597496249605 354.9745522419328 428.8924074114633C350.9741639776295 420.2088398604305 373.33210171811294 408.2041020199044 382.0190800709386 391.16983614750353C390.70605842376426 374.13557027510274 387.2942072602893 348.9889923316649 396.67204833549613 347.1279312239394C406.049889410703 345.2668701162139 417.12736315235736 360.7353770669011 427.0327172319315 382.236742830421C436.93807131150555 403.7381085939409 449.59520072835517 439.7898582300767 444.2177479174518 450.33448688883493 "></path><path d="M423.17091356347476 384.77435535715773C431.6612170602525 403.2040974401748 442.51018513183794 434.10559712829115 437.9009398653493 443.1438502643697C433.2916945988606 452.1821034004482 416.982821226386 431.986913174151 401.0465362843291 428.15797041033466C385.11025134227214 424.3290276465183 364.83567637002164 432.20798289893634 361.4067721434759 424.76492499805113C357.97786791693017 417.32186709716586 377.14181455163026 407.0320918052863 384.58779599690945 392.4312924860856C392.0337774421886 377.83049316688493 389.1093335877814 356.2762835010811 397.14748308081585 354.6810882658878C405.1856325738503 353.0858930306945 414.68061006669694 366.34461327414067 423.17091356347476 384.77435535715773C431.6612170602525 403.2040974401748 442.51018513183794 434.10559712829115 437.9009398653493 443.1438502643697 "></path><path d="M419.3090793774399 387.3119526251054C426.3843322914214 402.6700710276196 435.42513901774254 428.42132076771657 431.5841012956687 435.9531983811154C427.7430635735948 443.4850759945141 414.1523357631993 426.65575080593317 400.87209831148516 423.46496516941954C387.59186085977103 420.27417953290586 370.696381716229 426.83997557658756 367.83896152744086 420.6374273258499C364.98154133865273 414.4348790751122 380.9514968675695 405.86006633187924 387.15648140530215 393.69273356587865C393.3614659430348 381.52540079987807 390.92442939769546 363.5635594117082 397.6228873085575 362.2342300490471C404.3213452194195 360.90490068638604 412.2338264634584 371.9538342225912 419.3090793774399 387.3119526251054C426.3843322914214 402.6700710276196 435.42513901774254 428.42132076771657 431.5841012956687 435.9531983811154 "></path><path d="M415.44727570898317 389.84954989305305C421.10747804016836 402.13604461506446 428.34012342122526 422.737044407142 425.2672932435662 428.762546497861C422.1944630659071 434.78804858858007 411.3218808175907 421.3245884377153 400.69769085621937 418.7719599285044C390.0735008948481 416.21933141929344 376.5571175800144 421.47196825423885 374.27118142898394 416.50992965364867C371.9852452779534 411.5478910530585 384.76120970108684 404.68804085847216 389.72519733127297 394.9541746456717C394.68918496145903 385.2203084328712 392.73955572518764 370.8508353223353 398.09832205387727 369.7873718322064C403.4570883825669 368.72390834207755 409.787073377798 377.5630551710417 415.44727570898317 389.84954989305305C421.10747804016836 402.13604461506446 428.34012342122526 422.737044407142 425.2672932435662 428.762546497861 "></path><path d="M411.5854567817374 392.3871776785789C415.83060853012626 401.6020487200874 421.25509256591897 417.0527985641456 418.95046993267465 421.57192513218484C416.64584729943033 426.0910517002241 408.491410613193 415.9934565870755 400.5232681421645 414.0789852051673C392.55512567113607 412.16451382325914 382.4178381850108 416.1039914494682 380.70338607173795 412.38246249902556C378.98893395846505 408.66093354858293 388.57090727581516 403.51604590264316 392.2938979984547 396.21564624304284C396.0168887210943 388.91524658344247 394.5546667938907 378.1381417505405 398.5737415404079 377.3405441329439C402.59281628692514 376.54294651534724 407.3403050333485 383.17230663707034 411.5854567817374 392.3871776785789C415.83060853012626 401.6020487200874 421.25509256591897 417.0527985641456 418.95046993267465 421.57192513218484 "></path><path d="M407.7236378544916 394.92477494652655C410.55373902008415 401.0680223075322 414.17006171061263 411.368522203571 412.6336466217831 414.38127324893054C411.0972315329535 417.39402429429003 405.66094040879534 410.66229421885765 400.3488454281097 409.38597996425216C395.036750447424 408.1096657096467 388.2785587900072 410.7359841271194 387.13559071449197 408.25496482682433C385.99262263897674 405.77394552652925 392.3806048505434 402.3440204292361 394.8625986656365 397.4770873228358C397.34459248072955 392.6101542164356 396.3697778625938 385.42541766116767 399.04916102693863 384.8936859161032C401.72854419128345 384.3619541710388 404.89353668889896 388.78152758552085 407.7236378544916 394.92477494652655C410.55373902008415 401.0680223075322 414.17006171061263 411.368522203571 412.6336466217831 414.38127324893054 "></path><path d="M403.8618189272458 397.4623874732633C405.2768695100421 400.53401115376613 407.08503085530634 405.6842611017855 406.31682331089155 407.19063662446524C405.54861576647676 408.697012147145 402.83047020439767 405.3311471094288 400.17442271405486 404.6929899821261C397.51837522371204 404.05483285482336 394.1392793950036 405.3679920635597 393.567795357246 404.12748241341217C392.99631131948837 402.8869727632646 396.19030242527174 401.172010214618 397.43129933281824 398.7385436614179C398.67229624036474 396.3050771082178 398.1848889312969 392.71270883058384 399.5245805134693 392.4468429580516C400.8642720956417 392.1809770855194 402.4467683444495 394.3907637927604 403.8618189272458 397.4623874732633C405.2768695100421 400.53401115376613 407.08503085530634 405.6842611017855 406.31682331089155 407.19063662446524 "></path></g></svg>