<svg xmlns="http://www.w3.org/2000/svg" version="1.1" xmlns:xlink="http://www.w3.org/1999/xlink" xmlns:svgjs="http://svgjs.dev/svgjs" viewBox="0 0 800 800" opacity="1"><g fill="none" stroke-width="0.5" stroke="hsl(182, 25%, 50%)" stroke-linecap="round" stroke-dasharray="0 13"><line x1="176" y1="400" x2="624" y2="400" transform="rotate(0, 400, 400)" opacity="0.59"></line><line x1="104" y1="400" x2="696" y2="400" transform="rotate(4, 400, 400)" opacity="0.93"></line><line x1="25.5" y1="400" x2="774.5" y2="400" transform="rotate(8, 400, 400)" opacity="0.34"></line><line x1="94" y1="400" x2="706" y2="400" transform="rotate(12, 400, 400)" opacity="0.33"></line><line x1="200" y1="400" x2="600" y2="400" transform="rotate(16, 400, 400)" opacity="0.65"></line><line x1="55.5" y1="400" x2="744.5" y2="400" transform="rotate(20, 400, 400)" opacity="0.12"></line><line x1="136.5" y1="400" x2="663.5" y2="400" transform="rotate(24, 400, 400)" opacity="0.71"></line><line x1="190" y1="400" x2="610" y2="400" transform="rotate(28, 400, 400)" opacity="0.29"></line><line x1="100.5" y1="400" x2="699.5" y2="400" transform="rotate(32, 400, 400)" opacity="0.97"></line><line x1="125" y1="400" x2="675" y2="400" transform="rotate(36, 400, 400)" opacity="0.09"></line><line x1="108" y1="400" x2="692" y2="400" transform="rotate(40, 400, 400)" opacity="0.24"></line><line x1="135.5" y1="400" x2="664.5" y2="400" transform="rotate(44, 400, 400)" opacity="0.70"></line><line x1="134" y1="400" x2="666" y2="400" transform="rotate(48, 400, 400)" opacity="0.55"></line><line x1="65" y1="400" x2="735" y2="400" transform="rotate(52, 400, 400)" opacity="0.78"></line><line x1="77" y1="400" x2="723" y2="400" transform="rotate(56, 400, 400)" opacity="0.99"></line><line x1="184.5" y1="400" x2="615.5" y2="400" transform="rotate(60, 400, 400)" opacity="0.77"></line><line x1="155" y1="400" x2="645" y2="400" transform="rotate(64, 400, 400)" opacity="0.56"></line><line x1="47" y1="400" x2="753" y2="400" transform="rotate(68, 400, 400)" opacity="0.39"></line><line x1="189.5" y1="400" x2="610.5" y2="400" transform="rotate(72, 400, 400)" opacity="0.16"></line><line x1="167" y1="400" x2="633" y2="400" transform="rotate(76, 400, 400)" opacity="0.62"></line><line x1="192" y1="400" x2="608" y2="400" transform="rotate(80, 400, 400)" opacity="0.86"></line><line x1="15" y1="400" x2="785" y2="400" transform="rotate(84, 400, 400)" opacity="0.89"></line><line x1="136" y1="400" x2="664" y2="400" transform="rotate(88, 400, 400)" opacity="0.40"></line><line x1="52.5" y1="400" x2="747.5" y2="400" transform="rotate(92, 400, 400)" opacity="0.80"></line><line x1="83.5" y1="400" x2="716.5" y2="400" transform="rotate(96, 400, 400)" opacity="0.21"></line><line x1="182.5" y1="400" x2="617.5" y2="400" transform="rotate(100, 400, 400)" opacity="0.52"></line><line x1="192.5" y1="400" x2="607.5" y2="400" transform="rotate(104, 400, 400)" opacity="0.70"></line><line x1="18.5" y1="400" x2="781.5" y2="400" transform="rotate(108, 400, 400)" opacity="0.98"></line><line x1="192" y1="400" x2="608" y2="400" transform="rotate(112, 400, 400)" opacity="0.83"></line><line x1="138" y1="400" x2="662" y2="400" transform="rotate(116, 400, 400)" opacity="0.20"></line><line x1="54" y1="400" x2="746" y2="400" transform="rotate(120, 400, 400)" opacity="0.11"></line><line x1="113.5" y1="400" x2="686.5" y2="400" transform="rotate(124, 400, 400)" opacity="0.10"></line><line x1="13" y1="400" x2="787" y2="400" transform="rotate(128, 400, 400)" opacity="0.72"></line><line x1="107.5" y1="400" x2="692.5" y2="400" transform="rotate(132, 400, 400)" opacity="0.43"></line><line x1="29" y1="400" x2="771" y2="400" transform="rotate(136, 400, 400)" opacity="0.45"></line><line x1="90.5" y1="400" x2="709.5" y2="400" transform="rotate(140, 400, 400)" opacity="0.62"></line><line x1="75.5" y1="400" x2="724.5" y2="400" transform="rotate(144, 400, 400)" opacity="0.66"></line><line x1="58" y1="400" x2="742" y2="400" transform="rotate(148, 400, 400)" opacity="0.80"></line><line x1="7.5" y1="400" x2="792.5" y2="400" transform="rotate(152, 400, 400)" opacity="0.87"></line><line x1="41" y1="400" x2="759" y2="400" transform="rotate(156, 400, 400)" opacity="0.60"></line><line x1="27" y1="400" x2="773" y2="400" transform="rotate(160, 400, 400)" opacity="0.32"></line><line x1="196" y1="400" x2="604" y2="400" transform="rotate(164, 400, 400)" opacity="0.59"></line><line x1="190.5" y1="400" x2="609.5" y2="400" transform="rotate(168, 400, 400)" opacity="0.79"></line><line x1="108" y1="400" x2="692" y2="400" transform="rotate(172, 400, 400)" opacity="0.76"></line><line x1="193.5" y1="400" x2="606.5" y2="400" transform="rotate(176, 400, 400)" opacity="0.32"></line><line x1="62.5" y1="400" x2="737.5" y2="400" transform="rotate(180, 400, 400)" opacity="0.46"></line><line x1="42" y1="400" x2="758" y2="400" transform="rotate(184, 400, 400)" opacity="0.57"></line><line x1="177" y1="400" x2="623" y2="400" transform="rotate(188, 400, 400)" opacity="0.79"></line><line x1="72" y1="400" x2="728" y2="400" transform="rotate(192, 400, 400)" opacity="0.65"></line><line x1="58" y1="400" x2="742" y2="400" transform="rotate(196, 400, 400)" opacity="0.51"></line><line x1="102.5" y1="400" x2="697.5" y2="400" transform="rotate(200, 400, 400)" opacity="0.86"></line><line x1="81" y1="400" x2="719" y2="400" transform="rotate(204, 400, 400)" opacity="0.88"></line><line x1="194" y1="400" x2="606" y2="400" transform="rotate(208, 400, 400)" opacity="0.87"></line><line x1="26.5" y1="400" x2="773.5" y2="400" transform="rotate(212, 400, 400)" opacity="0.18"></line><line x1="111" y1="400" x2="689" y2="400" transform="rotate(216, 400, 400)" opacity="0.51"></line><line x1="198" y1="400" x2="602" y2="400" transform="rotate(220, 400, 400)" opacity="0.18"></line><line x1="144" y1="400" x2="656" y2="400" transform="rotate(224, 400, 400)" opacity="0.53"></line><line x1="10.5" y1="400" x2="789.5" y2="400" transform="rotate(228, 400, 400)" opacity="0.62"></line><line x1="108" y1="400" x2="692" y2="400" transform="rotate(232, 400, 400)" opacity="0.98"></line><line x1="43" y1="400" x2="757" y2="400" transform="rotate(236, 400, 400)" opacity="0.51"></line><line x1="85.5" y1="400" x2="714.5" y2="400" transform="rotate(240, 400, 400)" opacity="0.32"></line><line x1="73.5" y1="400" x2="726.5" y2="400" transform="rotate(244, 400, 400)" opacity="0.35"></line><line x1="79" y1="400" x2="721" y2="400" transform="rotate(248, 400, 400)" opacity="0.42"></line><line x1="167.5" y1="400" x2="632.5" y2="400" transform="rotate(252, 400, 400)" opacity="0.14"></line><line x1="75.5" y1="400" x2="724.5" y2="400" transform="rotate(256, 400, 400)" opacity="0.86"></line><line x1="161" y1="400" x2="639" y2="400" transform="rotate(260, 400, 400)" opacity="0.75"></line><line x1="20" y1="400" x2="780" y2="400" transform="rotate(264, 400, 400)" opacity="0.83"></line><line x1="18" y1="400" x2="782" y2="400" transform="rotate(268, 400, 400)" opacity="0.68"></line><line x1="66.5" y1="400" x2="733.5" y2="400" transform="rotate(272, 400, 400)" opacity="0.25"></line><line x1="155.5" y1="400" x2="644.5" y2="400" transform="rotate(276, 400, 400)" opacity="0.44"></line><line x1="129.5" y1="400" x2="670.5" y2="400" transform="rotate(280, 400, 400)" opacity="0.85"></line><line x1="13" y1="400" x2="787" y2="400" transform="rotate(284, 400, 400)" opacity="0.36"></line><line x1="158" y1="400" x2="642" y2="400" transform="rotate(288, 400, 400)" opacity="0.48"></line><line x1="7" y1="400" x2="793" y2="400" transform="rotate(292, 400, 400)" opacity="0.13"></line><line x1="161.5" y1="400" x2="638.5" y2="400" transform="rotate(296, 400, 400)" opacity="0.26"></line><line x1="141.5" y1="400" x2="658.5" y2="400" transform="rotate(300, 400, 400)" opacity="0.85"></line><line x1="10.5" y1="400" x2="789.5" y2="400" transform="rotate(304, 400, 400)" opacity="0.42"></line><line x1="180.5" y1="400" x2="619.5" y2="400" transform="rotate(308, 400, 400)" opacity="0.27"></line><line x1="15" y1="400" x2="785" y2="400" transform="rotate(312, 400, 400)" opacity="0.83"></line><line x1="171" y1="400" x2="629" y2="400" transform="rotate(316, 400, 400)" opacity="0.93"></line><line x1="77.5" y1="400" x2="722.5" y2="400" transform="rotate(320, 400, 400)" opacity="0.09"></line><line x1="148.5" y1="400" x2="651.5" y2="400" transform="rotate(324, 400, 400)" opacity="0.67"></line><line x1="8" y1="400" x2="792" y2="400" transform="rotate(328, 400, 400)" opacity="0.26"></line><line x1="17.5" y1="400" x2="782.5" y2="400" transform="rotate(332, 400, 400)" opacity="0.81"></line><line x1="79" y1="400" x2="721" y2="400" transform="rotate(336, 400, 400)" opacity="0.91"></line><line x1="10" y1="400" x2="790" y2="400" transform="rotate(340, 400, 400)" opacity="0.32"></line><line x1="183" y1="400" x2="617" y2="400" transform="rotate(344, 400, 400)" opacity="0.42"></line><line x1="63.5" y1="400" x2="736.5" y2="400" transform="rotate(348, 400, 400)" opacity="0.30"></line></g></svg>