<svg xmlns="http://www.w3.org/2000/svg" version="1.1" xmlns:xlink="http://www.w3.org/1999/xlink" xmlns:svgjs="http://svgjs.dev/svgjs" viewBox="0 0 800 800" opacity="0.44" width="800" height="800"><g stroke-width="1.25" stroke="hsl(209, 66%, 34%)" fill="none"><rect width="100" height="100" x="0" y="0" opacity="0.15"></rect><circle r="5.526315789473684" cx="0" cy="0" fill="hsl(209, 66%, 34%)" stroke="none"></circle><rect width="100" height="100" x="100" y="0" opacity="0.15"></rect><circle r="5.526315789473684" cx="100" cy="0" fill="hsl(209, 66%, 34%)" stroke="none"></circle><rect width="100" height="100" x="200" y="0" opacity="0.15"></rect><circle r="5.526315789473684" cx="200" cy="0" fill="hsl(209, 66%, 34%)" stroke="none"></circle><rect width="100" height="100" x="300" y="0" opacity="0.15"></rect><circle r="5.526315789473684" cx="300" cy="0" fill="hsl(209, 66%, 34%)" stroke="none"></circle><rect width="100" height="100" x="400" y="0" opacity="0.15"></rect><circle r="5.526315789473684" cx="400" cy="0" fill="hsl(209, 66%, 34%)" stroke="none"></circle><rect width="100" height="100" x="500" y="0" opacity="0.15"></rect><circle r="5.526315789473684" cx="500" cy="0" fill="hsl(209, 66%, 34%)" stroke="none"></circle><rect width="100" height="100" x="600" y="0" opacity="0.15"></rect><circle r="5.526315789473684" cx="600" cy="0" fill="hsl(209, 66%, 34%)" stroke="none"></circle><rect width="100" height="100" x="700" y="0" opacity="0.15"></rect><circle r="5.526315789473684" cx="700" cy="0" fill="hsl(209, 66%, 34%)" stroke="none"></circle><rect width="100" height="100" x="800" y="0" opacity="0.15"></rect><circle r="5.526315789473684" cx="800" cy="0" fill="hsl(209, 66%, 34%)" stroke="none"></circle><rect width="100" height="100" x="0" y="100" opacity="0.15"></rect><circle r="5.526315789473684" cx="0" cy="100" fill="hsl(209, 66%, 34%)" stroke="none"></circle><rect width="100" height="100" x="100" y="100" opacity="0.15"></rect><circle r="5.526315789473684" cx="100" cy="100" fill="hsl(209, 66%, 34%)" stroke="none"></circle><rect width="100" height="100" x="200" y="100" opacity="0.15"></rect><circle r="5.526315789473684" cx="200" cy="100" fill="hsl(209, 66%, 34%)" stroke="none"></circle><rect width="100" height="100" x="300" y="100" opacity="0.15"></rect><circle r="5.526315789473684" cx="300" cy="100" fill="hsl(209, 66%, 34%)" stroke="none"></circle><rect width="100" height="100" x="400" y="100" opacity="0.15"></rect><circle r="5.526315789473684" cx="400" cy="100" fill="hsl(209, 66%, 34%)" stroke="none"></circle><rect width="100" height="100" x="500" y="100" opacity="0.15"></rect><circle r="5.526315789473684" cx="500" cy="100" fill="hsl(209, 66%, 34%)" stroke="none"></circle><rect width="100" height="100" x="600" y="100" opacity="0.15"></rect><circle r="5.526315789473684" cx="600" cy="100" fill="hsl(209, 66%, 34%)" stroke="none"></circle><rect width="100" height="100" x="700" y="100" opacity="0.15"></rect><circle r="5.526315789473684" cx="700" cy="100" fill="hsl(209, 66%, 34%)" stroke="none"></circle><rect width="100" height="100" x="800" y="100" opacity="0.15"></rect><circle r="5.526315789473684" cx="800" cy="100" fill="hsl(209, 66%, 34%)" stroke="none"></circle><rect width="100" height="100" x="0" y="200" opacity="0.15"></rect><circle r="5.526315789473684" cx="0" cy="200" fill="hsl(209, 66%, 34%)" stroke="none"></circle><rect width="100" height="100" x="100" y="200" opacity="0.15"></rect><circle r="5.526315789473684" cx="100" cy="200" fill="hsl(209, 66%, 34%)" stroke="none"></circle><rect width="100" height="100" x="200" y="200" opacity="0.15"></rect><circle r="5.526315789473684" cx="200" cy="200" fill="hsl(209, 66%, 34%)" stroke="none"></circle><rect width="100" height="100" x="300" y="200" opacity="0.15"></rect><circle r="5.526315789473684" cx="300" cy="200" fill="hsl(209, 66%, 34%)" stroke="none"></circle><rect width="100" height="100" x="400" y="200" opacity="0.15"></rect><circle r="5.526315789473684" cx="400" cy="200" fill="hsl(209, 66%, 34%)" stroke="none"></circle><rect width="100" height="100" x="500" y="200" opacity="0.15"></rect><circle r="5.526315789473684" cx="500" cy="200" fill="hsl(209, 66%, 34%)" stroke="none"></circle><rect width="100" height="100" x="600" y="200" opacity="0.15"></rect><circle r="5.526315789473684" cx="600" cy="200" fill="hsl(209, 66%, 34%)" stroke="none"></circle><rect width="100" height="100" x="700" y="200" opacity="0.15"></rect><circle r="5.526315789473684" cx="700" cy="200" fill="hsl(209, 66%, 34%)" stroke="none"></circle><rect width="100" height="100" x="800" y="200" opacity="0.15"></rect><circle r="5.526315789473684" cx="800" cy="200" fill="hsl(209, 66%, 34%)" stroke="none"></circle><rect width="100" height="100" x="0" y="300" opacity="0.15"></rect><circle r="5.526315789473684" cx="0" cy="300" fill="hsl(209, 66%, 34%)" stroke="none"></circle><rect width="100" height="100" x="100" y="300" opacity="0.15"></rect><circle r="5.526315789473684" cx="100" cy="300" fill="hsl(209, 66%, 34%)" stroke="none"></circle><rect width="100" height="100" x="200" y="300" opacity="0.15"></rect><circle r="5.526315789473684" cx="200" cy="300" fill="hsl(209, 66%, 34%)" stroke="none"></circle><rect width="100" height="100" x="300" y="300" opacity="0.15"></rect><circle r="5.526315789473684" cx="300" cy="300" fill="hsl(209, 66%, 34%)" stroke="none"></circle><rect width="100" height="100" x="400" y="300" opacity="0.15"></rect><circle r="5.526315789473684" cx="400" cy="300" fill="hsl(209, 66%, 34%)" stroke="none"></circle><rect width="100" height="100" x="500" y="300" opacity="0.15"></rect><circle r="5.526315789473684" cx="500" cy="300" fill="hsl(209, 66%, 34%)" stroke="none"></circle><rect width="100" height="100" x="600" y="300" opacity="0.15"></rect><circle r="5.526315789473684" cx="600" cy="300" fill="hsl(209, 66%, 34%)" stroke="none"></circle><rect width="100" height="100" x="700" y="300" opacity="0.15"></rect><circle r="5.526315789473684" cx="700" cy="300" fill="hsl(209, 66%, 34%)" stroke="none"></circle><rect width="100" height="100" x="800" y="300" opacity="0.15"></rect><circle r="5.526315789473684" cx="800" cy="300" fill="hsl(209, 66%, 34%)" stroke="none"></circle><rect width="100" height="100" x="0" y="400" opacity="0.15"></rect><circle r="5.526315789473684" cx="0" cy="400" fill="hsl(209, 66%, 34%)" stroke="none"></circle><rect width="100" height="100" x="100" y="400" opacity="0.15"></rect><circle r="5.526315789473684" cx="100" cy="400" fill="hsl(209, 66%, 34%)" stroke="none"></circle><rect width="100" height="100" x="200" y="400" opacity="0.15"></rect><circle r="5.526315789473684" cx="200" cy="400" fill="hsl(209, 66%, 34%)" stroke="none"></circle><rect width="100" height="100" x="300" y="400" opacity="0.15"></rect><circle r="5.526315789473684" cx="300" cy="400" fill="hsl(209, 66%, 34%)" stroke="none"></circle><rect width="100" height="100" x="400" y="400" opacity="0.15"></rect><circle r="5.526315789473684" cx="400" cy="400" fill="hsl(209, 66%, 34%)" stroke="none"></circle><rect width="100" height="100" x="500" y="400" opacity="0.15"></rect><circle r="5.526315789473684" cx="500" cy="400" fill="hsl(209, 66%, 34%)" stroke="none"></circle><rect width="100" height="100" x="600" y="400" opacity="0.15"></rect><circle r="5.526315789473684" cx="600" cy="400" fill="hsl(209, 66%, 34%)" stroke="none"></circle><rect width="100" height="100" x="700" y="400" opacity="0.15"></rect><circle r="5.526315789473684" cx="700" cy="400" fill="hsl(209, 66%, 34%)" stroke="none"></circle><rect width="100" height="100" x="800" y="400" opacity="0.15"></rect><circle r="5.526315789473684" cx="800" cy="400" fill="hsl(209, 66%, 34%)" stroke="none"></circle><rect width="100" height="100" x="0" y="500" opacity="0.15"></rect><circle r="5.526315789473684" cx="0" cy="500" fill="hsl(209, 66%, 34%)" stroke="none"></circle><rect width="100" height="100" x="100" y="500" opacity="0.15"></rect><circle r="5.526315789473684" cx="100" cy="500" fill="hsl(209, 66%, 34%)" stroke="none"></circle><rect width="100" height="100" x="200" y="500" opacity="0.15"></rect><circle r="5.526315789473684" cx="200" cy="500" fill="hsl(209, 66%, 34%)" stroke="none"></circle><rect width="100" height="100" x="300" y="500" opacity="0.15"></rect><circle r="5.526315789473684" cx="300" cy="500" fill="hsl(209, 66%, 34%)" stroke="none"></circle><rect width="100" height="100" x="400" y="500" opacity="0.15"></rect><circle r="5.526315789473684" cx="400" cy="500" fill="hsl(209, 66%, 34%)" stroke="none"></circle><rect width="100" height="100" x="500" y="500" opacity="0.15"></rect><circle r="5.526315789473684" cx="500" cy="500" fill="hsl(209, 66%, 34%)" stroke="none"></circle><rect width="100" height="100" x="600" y="500" opacity="0.15"></rect><circle r="5.526315789473684" cx="600" cy="500" fill="hsl(209, 66%, 34%)" stroke="none"></circle><rect width="100" height="100" x="700" y="500" opacity="0.15"></rect><circle r="5.526315789473684" cx="700" cy="500" fill="hsl(209, 66%, 34%)" stroke="none"></circle><rect width="100" height="100" x="800" y="500" opacity="0.15"></rect><circle r="5.526315789473684" cx="800" cy="500" fill="hsl(209, 66%, 34%)" stroke="none"></circle><rect width="100" height="100" x="0" y="600" opacity="0.15"></rect><circle r="5.526315789473684" cx="0" cy="600" fill="hsl(209, 66%, 34%)" stroke="none"></circle><rect width="100" height="100" x="100" y="600" opacity="0.15"></rect><circle r="5.526315789473684" cx="100" cy="600" fill="hsl(209, 66%, 34%)" stroke="none"></circle><rect width="100" height="100" x="200" y="600" opacity="0.15"></rect><circle r="5.526315789473684" cx="200" cy="600" fill="hsl(209, 66%, 34%)" stroke="none"></circle><rect width="100" height="100" x="300" y="600" opacity="0.15"></rect><circle r="5.526315789473684" cx="300" cy="600" fill="hsl(209, 66%, 34%)" stroke="none"></circle><rect width="100" height="100" x="400" y="600" opacity="0.15"></rect><circle r="5.526315789473684" cx="400" cy="600" fill="hsl(209, 66%, 34%)" stroke="none"></circle><rect width="100" height="100" x="500" y="600" opacity="0.15"></rect><circle r="5.526315789473684" cx="500" cy="600" fill="hsl(209, 66%, 34%)" stroke="none"></circle><rect width="100" height="100" x="600" y="600" opacity="0.15"></rect><circle r="5.526315789473684" cx="600" cy="600" fill="hsl(209, 66%, 34%)" stroke="none"></circle><rect width="100" height="100" x="700" y="600" opacity="0.15"></rect><circle r="5.526315789473684" cx="700" cy="600" fill="hsl(209, 66%, 34%)" stroke="none"></circle><rect width="100" height="100" x="800" y="600" opacity="0.15"></rect><circle r="5.526315789473684" cx="800" cy="600" fill="hsl(209, 66%, 34%)" stroke="none"></circle><rect width="100" height="100" x="0" y="700" opacity="0.15"></rect><circle r="5.526315789473684" cx="0" cy="700" fill="hsl(209, 66%, 34%)" stroke="none"></circle><rect width="100" height="100" x="100" y="700" opacity="0.15"></rect><circle r="5.526315789473684" cx="100" cy="700" fill="hsl(209, 66%, 34%)" stroke="none"></circle><rect width="100" height="100" x="200" y="700" opacity="0.15"></rect><circle r="5.526315789473684" cx="200" cy="700" fill="hsl(209, 66%, 34%)" stroke="none"></circle><rect width="100" height="100" x="300" y="700" opacity="0.15"></rect><circle r="5.526315789473684" cx="300" cy="700" fill="hsl(209, 66%, 34%)" stroke="none"></circle><rect width="100" height="100" x="400" y="700" opacity="0.15"></rect><circle r="5.526315789473684" cx="400" cy="700" fill="hsl(209, 66%, 34%)" stroke="none"></circle><rect width="100" height="100" x="500" y="700" opacity="0.15"></rect><circle r="5.526315789473684" cx="500" cy="700" fill="hsl(209, 66%, 34%)" stroke="none"></circle><rect width="100" height="100" x="600" y="700" opacity="0.15"></rect><circle r="5.526315789473684" cx="600" cy="700" fill="hsl(209, 66%, 34%)" stroke="none"></circle><rect width="100" height="100" x="700" y="700" opacity="0.15"></rect><circle r="5.526315789473684" cx="700" cy="700" fill="hsl(209, 66%, 34%)" stroke="none"></circle><rect width="100" height="100" x="800" y="700" opacity="0.15"></rect><circle r="5.526315789473684" cx="800" cy="700" fill="hsl(209, 66%, 34%)" stroke="none"></circle><rect width="100" height="100" x="0" y="800" opacity="0.15"></rect><circle r="5.526315789473684" cx="0" cy="800" fill="hsl(209, 66%, 34%)" stroke="none"></circle><rect width="100" height="100" x="100" y="800" opacity="0.15"></rect><circle r="5.526315789473684" cx="100" cy="800" fill="hsl(209, 66%, 34%)" stroke="none"></circle><rect width="100" height="100" x="200" y="800" opacity="0.15"></rect><circle r="5.526315789473684" cx="200" cy="800" fill="hsl(209, 66%, 34%)" stroke="none"></circle><rect width="100" height="100" x="300" y="800" opacity="0.15"></rect><circle r="5.526315789473684" cx="300" cy="800" fill="hsl(209, 66%, 34%)" stroke="none"></circle><rect width="100" height="100" x="400" y="800" opacity="0.15"></rect><circle r="5.526315789473684" cx="400" cy="800" fill="hsl(209, 66%, 34%)" stroke="none"></circle><rect width="100" height="100" x="500" y="800" opacity="0.15"></rect><circle r="5.526315789473684" cx="500" cy="800" fill="hsl(209, 66%, 34%)" stroke="none"></circle><rect width="100" height="100" x="600" y="800" opacity="0.15"></rect><circle r="5.526315789473684" cx="600" cy="800" fill="hsl(209, 66%, 34%)" stroke="none"></circle><rect width="100" height="100" x="700" y="800" opacity="0.15"></rect><circle r="5.526315789473684" cx="700" cy="800" fill="hsl(209, 66%, 34%)" stroke="none"></circle><rect width="100" height="100" x="800" y="800" opacity="0.15"></rect><circle r="5.526315789473684" cx="800" cy="800" fill="hsl(209, 66%, 34%)" stroke="none"></circle></g></svg>